 <svg xmlns="http://www.w3.org/2000/svg" xmlns:xlink="http://www.w3.org/1999/xlink" width="40" zoomAndPan="magnify" viewBox="0 0 375 374.999991" height="40" preserveAspectRatio="xMidYMid meet" version="1.0"><defs><filter xmlns:xlink="http://www.w3.org/1999/xlink" x="0%" y="0%" width="100%" xlink:type="simple" xlink:actuate="onLoad" height="100%" id="filter-remove-color" xlink:show="other"><feColorMatrix values="0 0 0 0 1 0 0 0 0 1 0 0 0 0 1 0 0 0 1 0" color-interpolation-filters="sRGB"/></filter><mask id="mask-0"><g filter="url(#filter-remove-color)"><rect x="-37.5" width="450" fill="rgb(0%, 0%, 0%)" y="-37.499999" height="449.999989" fill-opacity="0.8"/></g></mask><clipPath id="clip-0"><path d="M 0.398438 0 L 365.648438 0 L 365.648438 365.25 L 0.398438 365.25 Z M 0.398438 0 " clip-rule="nonzero"/></clipPath><clipPath id="clip-1"><rect x="0" width="367" y="0" height="366"/></clipPath><clipPath id="clip-2"><path d="M 102 138 L 115 138 L 115 263.085938 L 102 263.085938 Z M 102 138 " clip-rule="nonzero"/></clipPath><clipPath id="clip-3"><path d="M 219 138 L 232 138 L 232 263.085938 L 219 263.085938 Z M 219 138 " clip-rule="nonzero"/></clipPath><clipPath id="clip-4"><path d="M 80.539062 128 L 254 128 L 254 153 L 80.539062 153 Z M 80.539062 128 " clip-rule="nonzero"/></clipPath><clipPath id="clip-5"><path d="M 80.539062 163 L 254 163 L 254 188 L 80.539062 188 Z M 80.539062 163 " clip-rule="nonzero"/></clipPath><clipPath id="clip-6"><path d="M 142 102.585938 L 326 102.585938 L 326 263.085938 L 142 263.085938 Z M 142 102.585938 " clip-rule="nonzero"/></clipPath><clipPath id="clip-7"><path d="M 125 255 L 184 255 L 184 263.085938 L 125 263.085938 Z M 125 255 " clip-rule="nonzero"/></clipPath><clipPath id="clip-8"><path d="M 142 253 L 222 253 L 222 263.085938 L 142 263.085938 Z M 142 253 " clip-rule="nonzero"/></clipPath></defs><g mask="url(#mask-0)"><g transform="matrix(1, 0, 0, 1, 5, 0)"><g id="source-5" clip-path="url(#clip-1)"><g clip-path="url(#clip-0)"><path fill="rgb(99.21875%, 79.60968%, 34.509277%)" d="M 365.648438 182.625 C 365.648438 185.613281 365.574219 188.601562 365.425781 191.585938 C 365.28125 194.570312 365.0625 197.550781 364.769531 200.523438 C 364.476562 203.5 364.109375 206.464844 363.671875 209.421875 C 363.230469 212.378906 362.722656 215.320312 362.136719 218.253906 C 361.554688 221.183594 360.898438 224.101562 360.175781 227 C 359.449219 229.898438 358.652344 232.777344 357.785156 235.636719 C 356.914062 238.5 355.976562 241.335938 354.972656 244.148438 C 353.964844 246.964844 352.890625 249.75 351.746094 252.511719 C 350.601562 255.273438 349.390625 258.003906 348.113281 260.707031 C 346.835938 263.410156 345.492188 266.078125 344.082031 268.714844 C 342.675781 271.351562 341.203125 273.949219 339.664062 276.511719 C 338.128906 279.078125 336.53125 281.601562 334.871094 284.085938 C 333.207031 286.570312 331.488281 289.015625 329.707031 291.414062 C 327.925781 293.816406 326.089844 296.171875 324.191406 298.480469 C 322.296875 300.792969 320.34375 303.054688 318.339844 305.269531 C 316.332031 307.484375 314.269531 309.648438 312.15625 311.761719 C 310.042969 313.875 307.878906 315.933594 305.664062 317.941406 C 303.449219 319.949219 301.1875 321.898438 298.878906 323.796875 C 296.566406 325.691406 294.210938 327.53125 291.8125 329.3125 C 289.410156 331.089844 286.96875 332.8125 284.484375 334.472656 C 281.996094 336.132812 279.472656 337.730469 276.910156 339.265625 C 274.347656 340.804688 271.746094 342.277344 269.109375 343.6875 C 266.476562 345.09375 263.804688 346.4375 261.105469 347.714844 C 258.402344 348.992188 255.671875 350.203125 252.910156 351.347656 C 250.148438 352.492188 247.359375 353.566406 244.546875 354.574219 C 241.734375 355.582031 238.894531 356.519531 236.035156 357.386719 C 233.175781 358.253906 230.296875 359.050781 227.394531 359.777344 C 224.496094 360.503906 221.582031 361.15625 218.652344 361.742188 C 215.71875 362.324219 212.773438 362.835938 209.820312 363.273438 C 206.863281 363.710938 203.898438 364.078125 200.921875 364.371094 C 197.949219 364.664062 194.96875 364.882812 191.984375 365.03125 C 188.996094 365.175781 186.011719 365.25 183.023438 365.25 C 180.035156 365.25 177.046875 365.175781 174.0625 365.03125 C 171.074219 364.882812 168.097656 364.664062 165.121094 364.371094 C 162.148438 364.078125 159.183594 363.710938 156.226562 363.273438 C 153.269531 362.835938 150.324219 362.324219 147.394531 361.742188 C 144.460938 361.15625 141.546875 360.503906 138.648438 359.777344 C 135.75 359.050781 132.867188 358.253906 130.007812 357.386719 C 127.148438 356.519531 124.3125 355.582031 121.496094 354.574219 C 118.683594 353.566406 115.894531 352.492188 113.132812 351.347656 C 110.375 350.203125 107.640625 348.992188 104.941406 347.714844 C 102.238281 346.4375 99.570312 345.09375 96.933594 343.6875 C 94.296875 342.277344 91.699219 340.804688 89.132812 339.265625 C 86.570312 337.730469 84.046875 336.132812 81.5625 334.472656 C 79.074219 332.8125 76.632812 331.089844 74.234375 329.3125 C 71.832031 327.53125 69.476562 325.691406 67.164062 323.796875 C 64.855469 321.898438 62.59375 319.949219 60.378906 317.941406 C 58.164062 315.933594 56 313.875 53.886719 311.761719 C 51.773438 309.648438 49.714844 307.484375 47.707031 305.269531 C 45.699219 303.054688 43.746094 300.792969 41.851562 298.480469 C 39.953125 296.171875 38.117188 293.816406 36.335938 291.414062 C 34.554688 289.015625 32.835938 286.570312 31.175781 284.085938 C 29.515625 281.601562 27.914062 279.078125 26.378906 276.511719 C 24.84375 273.949219 23.371094 271.351562 21.960938 268.714844 C 20.550781 266.078125 19.207031 263.410156 17.929688 260.707031 C 16.652344 258.003906 15.441406 255.273438 14.296875 252.511719 C 13.15625 249.75 12.078125 246.964844 11.074219 244.148438 C 10.066406 241.335938 9.128906 238.5 8.261719 235.636719 C 7.394531 232.777344 6.597656 229.898438 5.871094 227 C 5.144531 224.101562 4.488281 221.183594 3.90625 218.253906 C 3.324219 215.320312 2.8125 212.378906 2.375 209.421875 C 1.933594 206.464844 1.570312 203.5 1.277344 200.523438 C 0.984375 197.550781 0.765625 194.570312 0.617188 191.585938 C 0.46875 188.601562 0.398438 185.613281 0.398438 182.625 C 0.398438 179.636719 0.46875 176.648438 0.617188 173.664062 C 0.765625 170.679688 0.984375 167.699219 1.277344 164.726562 C 1.570312 161.75 1.933594 158.785156 2.375 155.828125 C 2.8125 152.871094 3.324219 149.929688 3.90625 146.996094 C 4.488281 144.066406 5.144531 141.148438 5.871094 138.25 C 6.597656 135.351562 7.394531 132.472656 8.261719 129.613281 C 9.128906 126.75 10.066406 123.914062 11.074219 121.101562 C 12.078125 118.285156 13.15625 115.5 14.296875 112.738281 C 15.441406 109.976562 16.652344 107.246094 17.929688 104.542969 C 19.207031 101.839844 20.550781 99.171875 21.960938 96.535156 C 23.371094 93.898438 24.84375 91.300781 26.378906 88.738281 C 27.914062 86.171875 29.515625 83.648438 31.175781 81.164062 C 32.835938 78.679688 34.554688 76.234375 36.335938 73.835938 C 38.117188 71.433594 39.953125 69.078125 41.851562 66.769531 C 43.746094 64.457031 45.699219 62.195312 47.707031 59.980469 C 49.714844 57.765625 51.773438 55.601562 53.886719 53.488281 C 56 51.375 58.164062 49.316406 60.378906 47.308594 C 62.59375 45.300781 64.855469 43.351562 67.164062 41.453125 C 69.476562 39.558594 71.832031 37.71875 74.234375 35.9375 C 76.632812 34.160156 79.074219 32.4375 81.5625 30.777344 C 84.046875 29.117188 86.570312 27.519531 89.132812 25.980469 C 91.699219 24.445312 94.296875 22.972656 96.933594 21.5625 C 99.570312 20.15625 102.238281 18.8125 104.941406 17.535156 C 107.640625 16.257812 110.375 15.046875 113.132812 13.902344 C 115.894531 12.757812 118.683594 11.683594 121.496094 10.675781 C 124.3125 9.667969 127.148438 8.730469 130.007812 7.863281 C 132.867188 6.996094 135.75 6.199219 138.648438 5.472656 C 141.546875 4.746094 144.460938 4.09375 147.394531 3.507812 C 150.324219 2.925781 153.269531 2.414062 156.226562 1.976562 C 159.183594 1.539062 162.148438 1.171875 165.121094 0.878906 C 168.097656 0.585938 171.074219 0.367188 174.0625 0.21875 C 177.046875 0.0742188 180.035156 0 183.023438 0 C 186.011719 0 188.996094 0.0742188 191.984375 0.21875 C 194.96875 0.367188 197.949219 0.585938 200.921875 0.878906 C 203.898438 1.171875 206.863281 1.539062 209.820312 1.976562 C 212.773438 2.414062 215.71875 2.925781 218.652344 3.507812 C 221.582031 4.09375 224.496094 4.746094 227.394531 5.472656 C 230.296875 6.199219 233.175781 6.996094 236.035156 7.863281 C 238.894531 8.730469 241.734375 9.667969 244.546875 10.675781 C 247.359375 11.683594 250.148438 12.757812 252.910156 13.902344 C 255.671875 15.046875 258.402344 16.257812 261.105469 17.535156 C 263.804688 18.8125 266.476562 20.15625 269.109375 21.5625 C 271.746094 22.972656 274.347656 24.445312 276.910156 25.980469 C 279.472656 27.519531 281.996094 29.117188 284.484375 30.777344 C 286.96875 32.4375 289.410156 34.160156 291.8125 35.9375 C 294.210938 37.71875 296.566406 39.558594 298.878906 41.453125 C 301.1875 43.351562 303.449219 45.300781 305.664062 47.308594 C 307.878906 49.316406 310.042969 51.375 312.15625 53.488281 C 314.269531 55.601562 316.332031 57.765625 318.339844 59.980469 C 320.34375 62.195312 322.296875 64.457031 324.191406 66.769531 C 326.089844 69.078125 327.925781 71.433594 329.707031 73.835938 C 331.488281 76.234375 333.207031 78.679688 334.871094 81.164062 C 336.53125 83.648438 338.128906 86.171875 339.664062 88.738281 C 341.203125 91.300781 342.675781 93.898438 344.082031 96.535156 C 345.492188 99.171875 346.835938 101.839844 348.113281 104.542969 C 349.390625 107.246094 350.601562 109.976562 351.746094 112.738281 C 352.890625 115.5 353.964844 118.285156 354.972656 121.101562 C 355.976562 123.914062 356.914062 126.75 357.785156 129.613281 C 358.652344 132.472656 359.449219 135.351562 360.175781 138.25 C 360.898438 141.148438 361.554688 144.066406 362.136719 146.996094 C 362.722656 149.929688 363.230469 152.871094 363.671875 155.828125 C 364.109375 158.785156 364.476562 161.75 364.769531 164.726562 C 365.0625 167.699219 365.28125 170.679688 365.425781 173.664062 C 365.574219 176.648438 365.648438 179.636719 365.648438 182.625 Z M 365.648438 182.625 " fill-opacity="1" fill-rule="nonzero"/></g></g></g></g><path fill="rgb(79.60968%, 75.289917%, 73.728943%)" d="M 112.964844 261.625 L 103.863281 261.625 L 103.863281 140.035156 L 112.964844 140.035156 L 112.964844 261.625 " fill-opacity="1" fill-rule="nonzero"/><g clip-path="url(#clip-2)"><path fill="rgb(13.729858%, 12.159729%, 12.548828%)" d="M 112.964844 261.625 L 112.964844 260.183594 L 105.304688 260.183594 L 105.304688 141.476562 L 111.523438 141.476562 L 111.523438 261.625 L 112.964844 261.625 L 112.964844 260.183594 L 112.964844 261.625 L 114.40625 261.625 L 114.40625 140.035156 C 114.40625 139.648438 114.253906 139.289062 113.984375 139.015625 C 113.710938 138.742188 113.347656 138.59375 112.964844 138.59375 L 103.863281 138.59375 C 103.484375 138.59375 103.109375 138.746094 102.84375 139.015625 C 102.578125 139.28125 102.421875 139.65625 102.421875 140.035156 L 102.421875 261.625 C 102.421875 262.007812 102.578125 262.378906 102.84375 262.644531 C 103.109375 262.914062 103.484375 263.066406 103.863281 263.066406 L 112.964844 263.066406 C 113.347656 263.066406 113.710938 262.917969 113.984375 262.644531 C 114.253906 262.371094 114.40625 262.011719 114.40625 261.625 L 112.964844 261.625 " fill-opacity="1" fill-rule="nonzero"/></g><path fill="rgb(79.60968%, 75.289917%, 73.728943%)" d="M 230.371094 261.625 L 221.273438 261.625 L 221.273438 140.035156 L 230.371094 140.035156 L 230.371094 261.625 " fill-opacity="1" fill-rule="nonzero"/><g clip-path="url(#clip-3)"><path fill="rgb(13.729858%, 12.159729%, 12.548828%)" d="M 230.371094 261.625 L 230.371094 260.183594 L 222.710938 260.183594 L 222.710938 141.476562 L 228.929688 141.476562 L 228.929688 261.625 L 230.371094 261.625 L 230.371094 260.183594 L 230.371094 261.625 L 231.8125 261.625 L 231.8125 140.035156 C 231.8125 139.648438 231.660156 139.289062 231.386719 139.015625 C 231.117188 138.742188 230.753906 138.59375 230.371094 138.59375 L 221.273438 138.59375 C 220.890625 138.59375 220.519531 138.746094 220.253906 139.015625 C 219.984375 139.28125 219.832031 139.65625 219.832031 140.035156 L 219.832031 261.625 C 219.832031 262.007812 219.984375 262.378906 220.253906 262.644531 C 220.519531 262.914062 220.890625 263.066406 221.273438 263.066406 L 230.371094 263.066406 C 230.753906 263.066406 231.117188 262.917969 231.386719 262.644531 C 231.660156 262.371094 231.8125 262.011719 231.8125 261.625 L 230.371094 261.625 " fill-opacity="1" fill-rule="nonzero"/></g><path fill="rgb(98.81897%, 80.389404%, 20.388794%)" d="M 81.953125 130.359375 L 81.953125 150.699219 L 252.285156 150.699219 L 252.285156 130.359375 L 81.953125 130.359375 " fill-opacity="1" fill-rule="nonzero"/><g clip-path="url(#clip-4)"><path fill="rgb(13.729858%, 12.159729%, 12.548828%)" d="M 81.953125 130.359375 L 80.511719 130.359375 L 80.511719 150.699219 C 80.511719 151.082031 80.664062 151.453125 80.929688 151.71875 C 81.199219 151.988281 81.570312 152.140625 81.953125 152.140625 L 252.285156 152.140625 C 252.667969 152.140625 253.03125 151.992188 253.304688 151.71875 C 253.574219 151.445312 253.726562 151.085938 253.726562 150.699219 L 253.726562 130.359375 C 253.726562 129.972656 253.574219 129.613281 253.304688 129.339844 C 253.03125 129.066406 252.667969 128.917969 252.285156 128.917969 L 81.953125 128.917969 C 81.570312 128.917969 81.199219 129.070312 80.929688 129.339844 C 80.664062 129.605469 80.511719 129.976562 80.511719 130.359375 L 81.953125 130.359375 L 81.953125 131.800781 L 250.84375 131.800781 L 250.84375 149.257812 L 83.390625 149.257812 L 83.390625 130.359375 L 81.953125 130.359375 L 81.953125 131.800781 L 81.953125 130.359375 " fill-opacity="1" fill-rule="nonzero"/></g><path fill="rgb(15.689087%, 16.079712%, 19.999695%)" d="M 98.242188 150.710938 L 84.902344 150.710938 L 96.546875 130.300781 L 109.886719 130.300781 L 98.242188 150.710938 " fill-opacity="1" fill-rule="nonzero"/><path fill="rgb(13.729858%, 12.159729%, 12.548828%)" d="M 98.242188 150.710938 L 98.242188 149.269531 L 87.386719 149.269531 L 97.382812 131.742188 L 107.40625 131.742188 L 96.992188 150 L 98.242188 150.710938 L 98.242188 149.269531 L 98.242188 150.710938 L 99.496094 151.425781 L 111.140625 131.015625 C 111.394531 130.566406 111.394531 130.019531 111.132812 129.574219 C 110.875 129.128906 110.402344 128.855469 109.886719 128.855469 L 96.546875 128.855469 C 96.027344 128.855469 95.550781 129.132812 95.296875 129.582031 L 83.652344 150 C 83.394531 150.445312 83.398438 150.992188 83.65625 151.433594 C 83.914062 151.882812 84.386719 152.152344 84.902344 152.152344 L 98.242188 152.152344 C 98.761719 152.152344 99.234375 151.878906 99.496094 151.425781 L 98.242188 150.710938 " fill-opacity="1" fill-rule="nonzero"/><path fill="rgb(15.689087%, 16.079712%, 19.999695%)" d="M 126.195312 150.710938 L 112.851562 150.710938 L 124.5 130.300781 L 137.839844 130.300781 L 126.195312 150.710938 " fill-opacity="1" fill-rule="nonzero"/><path fill="rgb(13.729858%, 12.159729%, 12.548828%)" d="M 126.195312 150.710938 L 126.195312 149.269531 L 115.332031 149.269531 L 125.335938 131.742188 L 135.355469 131.742188 L 124.941406 150 L 126.195312 150.710938 L 126.195312 149.269531 L 126.195312 150.710938 L 127.441406 151.425781 L 139.089844 131.015625 C 139.34375 130.566406 139.34375 130.019531 139.085938 129.574219 C 138.828125 129.128906 138.355469 128.855469 137.839844 128.855469 L 124.5 128.855469 C 123.980469 128.855469 123.503906 129.132812 123.246094 129.582031 L 111.597656 150 C 111.34375 150.445312 111.347656 150.992188 111.605469 151.433594 C 111.863281 151.882812 112.335938 152.152344 112.851562 152.152344 L 126.195312 152.152344 C 126.710938 152.152344 127.1875 151.878906 127.441406 151.425781 L 126.195312 150.710938 " fill-opacity="1" fill-rule="nonzero"/><path fill="rgb(15.689087%, 16.079712%, 19.999695%)" d="M 154.140625 150.710938 L 140.800781 150.710938 L 152.445312 130.300781 L 165.785156 130.300781 L 154.140625 150.710938 " fill-opacity="1" fill-rule="nonzero"/><path fill="rgb(13.729858%, 12.159729%, 12.548828%)" d="M 154.140625 150.710938 L 154.140625 149.269531 L 143.28125 149.269531 L 153.28125 131.742188 L 163.304688 131.742188 L 152.890625 150 L 154.140625 150.710938 L 154.140625 149.269531 L 154.140625 150.710938 L 155.394531 151.425781 L 167.039062 131.015625 C 167.292969 130.566406 167.292969 130.019531 167.035156 129.574219 C 166.773438 129.128906 166.300781 128.855469 165.785156 128.855469 L 152.445312 128.855469 C 151.925781 128.855469 151.453125 129.132812 151.195312 129.582031 L 139.550781 150 C 139.292969 150.445312 139.296875 150.992188 139.554688 151.433594 C 139.8125 151.882812 140.285156 152.152344 140.800781 152.152344 L 154.140625 152.152344 C 154.660156 152.152344 155.136719 151.878906 155.394531 151.425781 L 154.140625 150.710938 " fill-opacity="1" fill-rule="nonzero"/><path fill="rgb(15.689087%, 16.079712%, 19.999695%)" d="M 182.09375 150.710938 L 168.753906 150.710938 L 180.398438 130.300781 L 193.738281 130.300781 L 182.09375 150.710938 " fill-opacity="1" fill-rule="nonzero"/><path fill="rgb(13.729858%, 12.159729%, 12.548828%)" d="M 182.09375 150.710938 L 182.09375 149.269531 L 171.230469 149.269531 L 181.234375 131.742188 L 191.253906 131.742188 L 180.839844 150 L 182.09375 150.710938 L 182.09375 149.269531 L 182.09375 150.710938 L 183.339844 151.425781 L 194.988281 131.015625 C 195.242188 130.566406 195.238281 130.019531 194.980469 129.574219 C 194.722656 129.128906 194.25 128.855469 193.738281 128.855469 L 180.398438 128.855469 C 179.878906 128.855469 179.402344 129.132812 179.144531 129.582031 L 167.5 150 C 167.246094 150.445312 167.246094 150.992188 167.507812 151.433594 C 167.765625 151.882812 168.238281 152.152344 168.753906 152.152344 L 182.09375 152.152344 C 182.609375 152.152344 183.085938 151.878906 183.339844 151.425781 L 182.09375 150.710938 " fill-opacity="1" fill-rule="nonzero"/><path fill="rgb(15.689087%, 16.079712%, 19.999695%)" d="M 210.039062 150.710938 L 196.699219 150.710938 L 208.347656 130.300781 L 221.683594 130.300781 L 210.039062 150.710938 " fill-opacity="1" fill-rule="nonzero"/><path fill="rgb(13.729858%, 12.159729%, 12.548828%)" d="M 210.039062 150.710938 L 210.039062 149.269531 L 199.183594 149.269531 L 209.183594 131.742188 L 219.203125 131.742188 L 208.789062 150 L 210.039062 150.710938 L 210.039062 149.269531 L 210.039062 150.710938 L 211.292969 151.425781 L 222.9375 131.015625 C 223.191406 130.566406 223.191406 130.019531 222.933594 129.574219 C 222.671875 129.128906 222.199219 128.855469 221.683594 128.855469 L 208.347656 128.855469 C 207.828125 128.855469 207.351562 129.132812 207.09375 129.582031 L 195.449219 150 C 195.195312 150.445312 195.199219 150.992188 195.453125 151.433594 C 195.710938 151.882812 196.1875 152.152344 196.699219 152.152344 L 210.039062 152.152344 C 210.5625 152.152344 211.035156 151.878906 211.292969 151.425781 L 210.039062 150.710938 " fill-opacity="1" fill-rule="nonzero"/><path fill="rgb(15.689087%, 16.079712%, 19.999695%)" d="M 237.992188 150.710938 L 224.652344 150.710938 L 236.296875 130.300781 L 249.636719 130.300781 L 237.992188 150.710938 " fill-opacity="1" fill-rule="nonzero"/><path fill="rgb(13.729858%, 12.159729%, 12.548828%)" d="M 237.992188 150.710938 L 237.992188 149.269531 L 227.132812 149.269531 L 237.132812 131.742188 L 247.152344 131.742188 L 236.738281 150 L 237.992188 150.710938 L 237.992188 149.269531 L 237.992188 150.710938 L 239.242188 151.425781 L 250.886719 131.015625 C 251.140625 130.566406 251.140625 130.019531 250.882812 129.574219 C 250.625 129.128906 250.152344 128.855469 249.636719 128.855469 L 236.296875 128.855469 C 235.777344 128.855469 235.304688 129.132812 235.042969 129.582031 L 223.398438 150 C 223.144531 150.445312 223.144531 150.992188 223.40625 151.433594 C 223.664062 151.882812 224.136719 152.152344 224.652344 152.152344 L 237.992188 152.152344 C 238.507812 152.152344 238.984375 151.878906 239.242188 151.425781 L 237.992188 150.710938 " fill-opacity="1" fill-rule="nonzero"/><path fill="rgb(98.81897%, 80.389404%, 20.388794%)" d="M 81.953125 165.375 L 81.953125 185.714844 L 252.285156 185.714844 L 252.285156 165.375 L 81.953125 165.375 " fill-opacity="1" fill-rule="nonzero"/><g clip-path="url(#clip-5)"><path fill="rgb(13.729858%, 12.159729%, 12.548828%)" d="M 81.953125 165.375 L 80.511719 165.375 L 80.511719 185.714844 C 80.511719 186.09375 80.664062 186.46875 80.929688 186.734375 C 81.199219 187.003906 81.570312 187.15625 81.953125 187.15625 L 252.285156 187.15625 C 252.667969 187.15625 253.03125 187.007812 253.304688 186.734375 C 253.574219 186.460938 253.726562 186.097656 253.726562 185.714844 L 253.726562 165.375 C 253.726562 164.988281 253.574219 164.625 253.304688 164.355469 C 253.03125 164.082031 252.667969 163.929688 252.285156 163.929688 L 81.953125 163.929688 C 81.570312 163.929688 81.199219 164.085938 80.929688 164.355469 C 80.664062 164.621094 80.511719 164.992188 80.511719 165.375 L 81.953125 165.375 L 81.953125 166.816406 L 250.84375 166.816406 L 250.84375 184.273438 L 83.390625 184.273438 L 83.390625 165.375 L 81.953125 165.375 L 81.953125 166.816406 L 81.953125 165.375 " fill-opacity="1" fill-rule="nonzero"/></g><path fill="rgb(15.689087%, 16.079712%, 19.999695%)" d="M 98.242188 185.726562 L 84.902344 185.726562 L 96.546875 165.3125 L 109.886719 165.3125 L 98.242188 185.726562 " fill-opacity="1" fill-rule="nonzero"/><path fill="rgb(13.729858%, 12.159729%, 12.548828%)" d="M 98.242188 185.726562 L 98.242188 184.285156 L 87.386719 184.285156 L 97.382812 166.757812 L 107.40625 166.757812 L 96.992188 185.011719 L 98.242188 185.726562 L 98.242188 184.285156 L 98.242188 185.726562 L 99.496094 186.441406 L 111.140625 166.03125 C 111.394531 165.582031 111.394531 165.035156 111.132812 164.589844 C 110.875 164.144531 110.402344 163.871094 109.886719 163.871094 L 96.546875 163.871094 C 96.027344 163.871094 95.550781 164.148438 95.296875 164.597656 L 83.652344 185.011719 C 83.394531 185.460938 83.398438 186.003906 83.65625 186.449219 C 83.914062 186.898438 84.386719 187.167969 84.902344 187.167969 L 98.242188 187.167969 C 98.761719 187.167969 99.234375 186.890625 99.496094 186.441406 L 98.242188 185.726562 " fill-opacity="1" fill-rule="nonzero"/><path fill="rgb(15.689087%, 16.079712%, 19.999695%)" d="M 126.195312 185.726562 L 112.851562 185.726562 L 124.5 165.3125 L 137.839844 165.3125 L 126.195312 185.726562 " fill-opacity="1" fill-rule="nonzero"/><path fill="rgb(13.729858%, 12.159729%, 12.548828%)" d="M 126.195312 185.726562 L 126.195312 184.285156 L 115.332031 184.285156 L 125.335938 166.757812 L 135.355469 166.757812 L 124.941406 185.011719 L 126.195312 185.726562 L 126.195312 184.285156 L 126.195312 185.726562 L 127.441406 186.441406 L 139.089844 166.03125 C 139.34375 165.582031 139.34375 165.035156 139.085938 164.589844 C 138.828125 164.144531 138.355469 163.871094 137.839844 163.871094 L 124.5 163.871094 C 123.980469 163.871094 123.503906 164.148438 123.246094 164.597656 L 111.597656 185.011719 C 111.34375 185.460938 111.347656 186.003906 111.605469 186.449219 C 111.863281 186.898438 112.335938 187.167969 112.851562 187.167969 L 126.195312 187.167969 C 126.710938 187.167969 127.1875 186.890625 127.441406 186.441406 L 126.195312 185.726562 " fill-opacity="1" fill-rule="nonzero"/><path fill="rgb(15.689087%, 16.079712%, 19.999695%)" d="M 154.140625 185.726562 L 140.800781 185.726562 L 152.445312 165.3125 L 165.785156 165.3125 L 154.140625 185.726562 " fill-opacity="1" fill-rule="nonzero"/><path fill="rgb(13.729858%, 12.159729%, 12.548828%)" d="M 154.140625 185.726562 L 154.140625 184.285156 L 143.28125 184.285156 L 153.28125 166.757812 L 163.304688 166.757812 L 152.890625 185.011719 L 154.140625 185.726562 L 154.140625 184.285156 L 154.140625 185.726562 L 155.394531 186.441406 L 167.039062 166.03125 C 167.292969 165.582031 167.292969 165.035156 167.035156 164.589844 C 166.773438 164.144531 166.300781 163.871094 165.785156 163.871094 L 152.445312 163.871094 C 151.925781 163.871094 151.453125 164.148438 151.195312 164.597656 L 139.550781 185.011719 C 139.292969 185.460938 139.296875 186.003906 139.554688 186.449219 C 139.8125 186.898438 140.285156 187.167969 140.800781 187.167969 L 154.140625 187.167969 C 154.660156 187.167969 155.136719 186.890625 155.394531 186.441406 L 154.140625 185.726562 " fill-opacity="1" fill-rule="nonzero"/><path fill="rgb(15.689087%, 16.079712%, 19.999695%)" d="M 182.09375 185.726562 L 168.753906 185.726562 L 180.398438 165.3125 L 193.738281 165.3125 L 182.09375 185.726562 " fill-opacity="1" fill-rule="nonzero"/><path fill="rgb(13.729858%, 12.159729%, 12.548828%)" d="M 182.09375 185.726562 L 182.09375 184.285156 L 171.230469 184.285156 L 181.234375 166.757812 L 191.253906 166.757812 L 180.839844 185.011719 L 182.09375 185.726562 L 182.09375 184.285156 L 182.09375 185.726562 L 183.339844 186.441406 L 194.988281 166.03125 C 195.242188 165.582031 195.238281 165.035156 194.980469 164.589844 C 194.722656 164.144531 194.25 163.871094 193.738281 163.871094 L 180.398438 163.871094 C 179.878906 163.871094 179.402344 164.148438 179.144531 164.597656 L 167.5 185.011719 C 167.246094 185.460938 167.246094 186.003906 167.507812 186.449219 C 167.765625 186.898438 168.238281 187.167969 168.753906 187.167969 L 182.09375 187.167969 C 182.609375 187.167969 183.085938 186.890625 183.339844 186.441406 L 182.09375 185.726562 " fill-opacity="1" fill-rule="nonzero"/><path fill="rgb(15.689087%, 16.079712%, 19.999695%)" d="M 210.039062 185.726562 L 196.699219 185.726562 L 208.347656 165.3125 L 221.683594 165.3125 L 210.039062 185.726562 " fill-opacity="1" fill-rule="nonzero"/><path fill="rgb(13.729858%, 12.159729%, 12.548828%)" d="M 210.039062 185.726562 L 210.039062 184.285156 L 199.183594 184.285156 L 209.183594 166.757812 L 219.203125 166.757812 L 208.789062 185.011719 L 210.039062 185.726562 L 210.039062 184.285156 L 210.039062 185.726562 L 211.292969 186.441406 L 222.9375 166.03125 C 223.191406 165.582031 223.191406 165.035156 222.933594 164.589844 C 222.671875 164.144531 222.199219 163.871094 221.683594 163.871094 L 208.347656 163.871094 C 207.828125 163.871094 207.351562 164.148438 207.09375 164.597656 L 195.449219 185.011719 C 195.195312 185.460938 195.199219 186.003906 195.453125 186.449219 C 195.710938 186.898438 196.1875 187.167969 196.699219 187.167969 L 210.039062 187.167969 C 210.5625 187.167969 211.035156 186.890625 211.292969 186.441406 L 210.039062 185.726562 " fill-opacity="1" fill-rule="nonzero"/><path fill="rgb(15.689087%, 16.079712%, 19.999695%)" d="M 237.992188 185.726562 L 224.652344 185.726562 L 236.296875 165.3125 L 249.636719 165.3125 L 237.992188 185.726562 " fill-opacity="1" fill-rule="nonzero"/><path fill="rgb(13.729858%, 12.159729%, 12.548828%)" d="M 237.992188 185.726562 L 237.992188 184.285156 L 227.132812 184.285156 L 237.132812 166.757812 L 247.152344 166.757812 L 236.738281 185.011719 L 237.992188 185.726562 L 237.992188 184.285156 L 237.992188 185.726562 L 239.242188 186.441406 L 250.886719 166.03125 C 251.140625 165.582031 251.140625 165.035156 250.882812 164.589844 C 250.625 164.144531 250.152344 163.871094 249.636719 163.871094 L 236.296875 163.871094 C 235.777344 163.871094 235.304688 164.148438 235.042969 164.597656 L 223.398438 185.011719 C 223.144531 185.460938 223.144531 186.003906 223.40625 186.449219 C 223.664062 186.898438 224.136719 187.167969 224.652344 187.167969 L 237.992188 187.167969 C 238.507812 187.167969 238.984375 186.890625 239.242188 186.441406 L 237.992188 185.726562 " fill-opacity="1" fill-rule="nonzero"/><path fill="rgb(98.81897%, 80.389404%, 20.388794%)" d="M 315.34375 261.625 C 323.375 261.625 327.292969 254.800781 320.3125 243.210938 L 241.414062 106.945312 C 237.910156 103.144531 232.238281 103.144531 228.738281 106.945312 L 146.507812 245.535156 C 140.535156 254.800781 147.222656 261.625 152.640625 261.625 L 315.34375 261.625 " fill-opacity="1" fill-rule="nonzero"/><g clip-path="url(#clip-6)"><path fill="rgb(13.729858%, 12.159729%, 12.548828%)" d="M 315.34375 261.625 L 315.34375 263.066406 C 316.757812 263.066406 318.085938 262.875 319.296875 262.480469 C 321.109375 261.894531 322.667969 260.828125 323.738281 259.328125 C 324.8125 257.828125 325.375 255.929688 325.371094 253.796875 C 325.363281 250.578125 324.152344 246.796875 321.546875 242.46875 L 320.3125 243.210938 L 321.558594 242.488281 L 242.660156 106.21875 C 242.605469 106.128906 242.542969 106.042969 242.472656 105.964844 C 240.457031 103.777344 237.765625 102.648438 235.074219 102.652344 C 232.386719 102.648438 229.6875 103.777344 227.675781 105.964844 C 227.605469 106.046875 227.554688 106.117188 227.5 106.207031 L 145.269531 244.800781 L 146.507812 245.535156 L 145.300781 244.757812 C 143.511719 247.523438 142.722656 250.195312 142.722656 252.617188 C 142.71875 255.757812 144.050781 258.402344 145.9375 260.207031 C 147.828125 262.015625 150.25 263.058594 152.640625 263.066406 L 315.34375 263.066406 L 315.34375 260.183594 L 152.640625 260.183594 C 151.121094 260.191406 149.308594 259.460938 147.9375 258.128906 C 146.558594 256.796875 145.609375 254.933594 145.601562 252.617188 C 145.605469 250.824219 146.175781 248.714844 147.71875 246.320312 L 147.746094 246.273438 L 229.976562 107.679688 L 228.738281 106.945312 L 229.796875 107.921875 C 231.285156 106.308594 233.179688 105.539062 235.074219 105.535156 C 236.96875 105.539062 238.863281 106.308594 240.351562 107.921875 L 241.414062 106.945312 L 240.167969 107.667969 L 319.066406 243.9375 L 319.078125 243.957031 C 321.511719 247.988281 322.496094 251.328125 322.492188 253.796875 C 322.488281 254.890625 322.300781 255.816406 321.980469 256.589844 C 321.492188 257.75 320.714844 258.601562 319.617188 259.21875 C 318.515625 259.828125 317.074219 260.183594 315.34375 260.183594 L 315.34375 261.625 " fill-opacity="1" fill-rule="nonzero"/></g><path fill="rgb(15.689087%, 16.079712%, 19.999695%)" d="M 231.058594 122.984375 L 165.296875 238.035156 L 165.28125 238.054688 C 163.453125 241 163.140625 243.867188 164.402344 246.136719 C 165.351562 247.855469 167.195312 249.058594 168.875 249.058594 L 299.136719 249.058594 C 300.6875 249.058594 302.761719 248.671875 303.8125 246.847656 C 305.144531 244.535156 304.398438 240.609375 301.769531 236.085938 L 238.675781 122.980469 C 237.632812 121.863281 236.289062 121.253906 234.871094 121.253906 C 233.453125 121.253906 232.101562 121.867188 231.058594 122.984375 Z M 299.136719 252.160156 L 168.875 252.160156 C 166.078125 252.160156 163.1875 250.347656 161.6875 247.644531 C 160.632812 245.738281 159.347656 241.75 162.632812 236.441406 L 228.53125 121.160156 L 228.640625 121.039062 C 230.292969 119.175781 232.507812 118.148438 234.871094 118.148438 C 237.238281 118.148438 239.453125 119.175781 241.101562 121.039062 L 241.214844 121.164062 L 241.300781 121.3125 L 304.46875 234.546875 C 307.699219 240.117188 308.425781 245.046875 306.5 248.394531 C 305.105469 250.824219 302.488281 252.160156 299.136719 252.160156 " fill-opacity="1" fill-rule="nonzero"/><path fill="rgb(13.729858%, 12.159729%, 12.548828%)" d="M 231.058594 122.984375 L 229.808594 122.265625 L 164.046875 237.316406 L 165.296875 238.035156 L 164.0625 237.285156 L 164.050781 237.308594 L 165.28125 238.054688 L 164.058594 237.292969 C 162.863281 239.222656 162.203125 241.203125 162.199219 243.132812 C 162.195312 244.433594 162.507812 245.707031 163.140625 246.839844 L 163.140625 246.835938 C 163.742188 247.917969 164.59375 248.804688 165.574219 249.449219 C 166.558594 250.085938 167.6875 250.496094 168.875 250.5 L 299.136719 250.5 C 300.03125 250.496094 301.097656 250.394531 302.175781 249.984375 C 302.714844 249.773438 303.253906 249.488281 303.753906 249.089844 C 304.253906 248.691406 304.707031 248.183594 305.058594 247.566406 C 305.648438 246.542969 305.898438 245.359375 305.898438 244.109375 C 305.886719 241.515625 304.863281 238.558594 303.015625 235.359375 L 301.769531 236.085938 L 303.027344 235.378906 L 239.933594 122.277344 C 239.875 122.171875 239.808594 122.082031 239.726562 121.992188 C 238.445312 120.621094 236.707031 119.804688 234.871094 119.8125 C 233.03125 119.804688 231.289062 120.621094 230.007812 122.003906 C 229.933594 122.078125 229.859375 122.175781 229.808594 122.265625 L 231.058594 122.984375 L 232.113281 123.96875 C 232.917969 123.113281 233.871094 122.699219 234.871094 122.695312 C 235.867188 122.699219 236.816406 123.113281 237.625 123.964844 L 238.675781 122.980469 L 237.417969 123.683594 L 300.511719 236.785156 L 300.523438 236.808594 C 302.21875 239.714844 303.027344 242.3125 303.015625 244.109375 C 303.015625 244.980469 302.839844 245.644531 302.5625 246.128906 C 302.390625 246.421875 302.191406 246.648438 301.953125 246.835938 C 301.605469 247.117188 301.164062 247.3125 300.667969 247.441406 C 300.171875 247.566406 299.628906 247.613281 299.136719 247.613281 L 168.875 247.613281 C 168.378906 247.617188 167.746094 247.421875 167.152344 247.035156 C 166.558594 246.644531 166.015625 246.078125 165.660156 245.4375 L 165.660156 245.433594 C 165.273438 244.738281 165.082031 243.984375 165.082031 243.132812 C 165.078125 241.878906 165.523438 240.402344 166.507812 238.816406 L 166.515625 238.800781 L 166.53125 238.78125 L 166.550781 238.75 L 232.308594 123.699219 L 231.058594 122.984375 L 232.113281 123.96875 Z M 299.136719 252.160156 L 299.136719 250.71875 L 168.875 250.71875 C 167.789062 250.71875 166.617188 250.359375 165.5625 249.691406 C 164.503906 249.03125 163.570312 248.070312 162.949219 246.945312 C 162.488281 246.113281 161.96875 244.808594 161.96875 243.097656 C 161.972656 241.515625 162.402344 239.554688 163.855469 237.199219 L 163.882812 237.15625 L 229.707031 122.003906 L 229.71875 121.992188 L 229.714844 121.996094 C 231.125 120.414062 232.925781 119.59375 234.871094 119.589844 C 236.8125 119.59375 238.617188 120.417969 240.027344 121.992188 L 240.023438 121.992188 L 240.046875 122.023438 L 303.210938 235.25 L 303.222656 235.269531 C 305.1875 238.648438 306.121094 241.707031 306.113281 244.117188 C 306.113281 245.519531 305.8125 246.695312 305.25 247.675781 C 304.6875 248.648438 303.90625 249.382812 302.894531 249.90625 C 301.882812 250.417969 300.621094 250.71875 299.136719 250.71875 L 299.136719 253.601562 C 301 253.601562 302.726562 253.226562 304.207031 252.472656 C 305.6875 251.71875 306.914062 250.570312 307.746094 249.117188 C 308.597656 247.640625 309 245.933594 308.996094 244.117188 C 308.992188 240.980469 307.84375 237.5 305.714844 233.824219 L 304.46875 234.546875 L 305.726562 233.84375 L 242.558594 120.609375 L 242.550781 120.59375 L 242.464844 120.445312 C 242.410156 120.355469 242.363281 120.285156 242.292969 120.207031 L 242.183594 120.085938 L 242.179688 120.082031 C 240.285156 117.933594 237.65625 116.699219 234.871094 116.703125 C 232.082031 116.699219 229.457031 117.933594 227.5625 120.082031 L 227.558594 120.082031 L 227.453125 120.203125 C 227.382812 120.28125 227.332031 120.351562 227.28125 120.441406 L 161.382812 235.722656 L 162.632812 236.441406 L 161.40625 235.683594 C 159.699219 238.429688 159.082031 240.96875 159.089844 243.097656 C 159.085938 245.402344 159.789062 247.199219 160.429688 248.347656 C 161.304688 249.921875 162.566406 251.214844 164.027344 252.136719 C 165.488281 253.054688 167.160156 253.597656 168.875 253.601562 L 299.136719 253.601562 L 299.136719 252.160156 " fill-opacity="1" fill-rule="nonzero"/><path fill="rgb(15.689087%, 16.079712%, 19.999695%)" d="M 244.1875 223.984375 C 244.1875 229.078125 240.0625 233.203125 234.972656 233.203125 C 229.886719 233.203125 225.761719 229.078125 225.761719 223.984375 C 225.761719 218.890625 229.886719 214.765625 234.972656 214.765625 C 240.0625 214.765625 244.1875 218.890625 244.1875 223.984375 " fill-opacity="1" fill-rule="nonzero"/><path fill="rgb(13.729858%, 12.159729%, 12.548828%)" d="M 244.1875 223.984375 L 242.746094 223.984375 C 242.746094 226.136719 241.878906 228.074219 240.46875 229.484375 C 239.058594 230.894531 237.125 231.761719 234.972656 231.761719 C 232.820312 231.761719 230.890625 230.894531 229.476562 229.484375 C 228.070312 228.074219 227.203125 226.136719 227.199219 223.984375 C 227.203125 221.832031 228.070312 219.898438 229.476562 218.484375 C 230.890625 217.074219 232.820312 216.207031 234.972656 216.207031 C 237.125 216.207031 239.058594 217.074219 240.46875 218.484375 C 241.878906 219.898438 242.746094 221.832031 242.746094 223.984375 L 245.628906 223.984375 C 245.628906 218.09375 240.859375 213.324219 234.972656 213.324219 C 229.089844 213.324219 224.320312 218.09375 224.320312 223.984375 C 224.320312 229.871094 229.089844 234.644531 234.972656 234.644531 C 240.859375 234.644531 245.628906 229.875 245.628906 223.984375 L 244.1875 223.984375 " fill-opacity="1" fill-rule="nonzero"/><path fill="rgb(15.689087%, 16.079712%, 19.999695%)" d="M 242.019531 209.886719 L 227.929688 209.886719 L 224.515625 161.785156 L 245.886719 161.933594 L 242.019531 209.886719 " fill-opacity="1" fill-rule="nonzero"/><path fill="rgb(13.729858%, 12.159729%, 12.548828%)" d="M 242.019531 209.886719 L 242.019531 208.441406 L 229.269531 208.441406 L 226.0625 163.238281 L 244.324219 163.363281 L 240.582031 209.769531 L 242.019531 209.886719 L 242.019531 208.441406 L 242.019531 209.886719 L 243.457031 210 L 247.324219 162.050781 C 247.355469 161.648438 247.21875 161.253906 246.949219 160.960938 C 246.679688 160.664062 246.296875 160.496094 245.894531 160.492188 L 224.523438 160.34375 C 224.125 160.339844 223.738281 160.503906 223.464844 160.800781 C 223.191406 161.09375 223.050781 161.488281 223.078125 161.886719 L 226.492188 209.984375 C 226.546875 210.742188 227.171875 211.328125 227.929688 211.328125 L 242.019531 211.328125 C 242.773438 211.328125 243.394531 210.75 243.457031 210 L 242.019531 209.886719 " fill-opacity="1" fill-rule="nonzero"/><path fill="rgb(95.289612%, 36.859131%, 28.239441%)" d="M 179.160156 257.132812 L 157.160156 206.769531 L 151.710938 206.769531 L 129.589844 257.132812 L 179.160156 257.132812 " fill-opacity="1" fill-rule="nonzero"/><path fill="rgb(13.729858%, 12.159729%, 12.548828%)" d="M 179.160156 257.132812 L 180.480469 256.554688 L 158.480469 206.191406 C 158.25 205.664062 157.734375 205.328125 157.160156 205.328125 L 151.710938 205.328125 C 151.144531 205.328125 150.625 205.667969 150.394531 206.191406 L 128.269531 256.546875 C 128.074219 256.996094 128.117188 257.511719 128.382812 257.917969 C 128.648438 258.324219 129.101562 258.574219 129.589844 258.574219 L 179.160156 258.574219 C 179.648438 258.574219 180.101562 258.328125 180.367188 257.917969 C 180.632812 257.511719 180.671875 257 180.480469 256.554688 L 179.160156 257.132812 L 179.160156 255.6875 L 131.796875 255.6875 L 152.652344 208.210938 L 156.21875 208.210938 L 177.839844 257.707031 L 179.160156 257.132812 L 179.160156 255.6875 L 179.160156 257.132812 " fill-opacity="1" fill-rule="nonzero"/><path fill="rgb(98.81897%, 80.389404%, 20.388794%)" d="M 147.566406 216.214844 L 144.472656 223.257812 L 164.367188 223.257812 L 161.285156 216.214844 L 147.566406 216.214844 " fill-opacity="1" fill-rule="nonzero"/><path fill="rgb(13.729858%, 12.159729%, 12.548828%)" d="M 147.566406 216.214844 L 146.246094 215.628906 L 143.152344 222.675781 C 142.953125 223.121094 142.996094 223.636719 143.265625 224.046875 C 143.527344 224.449219 143.984375 224.699219 144.472656 224.699219 L 164.367188 224.699219 C 164.851562 224.699219 165.300781 224.453125 165.570312 224.046875 C 165.835938 223.636719 165.878906 223.125 165.683594 222.679688 L 162.605469 215.632812 C 162.378906 215.109375 161.859375 214.769531 161.285156 214.769531 L 147.566406 214.769531 C 146.996094 214.769531 146.476562 215.109375 146.246094 215.628906 L 147.566406 216.214844 L 147.566406 217.65625 L 160.34375 217.65625 L 162.160156 221.816406 L 146.679688 221.816406 L 148.882812 216.792969 L 147.566406 216.214844 L 147.566406 217.65625 L 147.566406 216.214844 " fill-opacity="1" fill-rule="nonzero"/><path fill="rgb(98.81897%, 80.389404%, 20.388794%)" d="M 141.96875 228.949219 L 138.28125 237.347656 L 170.515625 237.347656 L 166.851562 228.949219 L 141.96875 228.949219 " fill-opacity="1" fill-rule="nonzero"/><path fill="rgb(13.729858%, 12.159729%, 12.548828%)" d="M 141.96875 228.949219 L 140.648438 228.371094 L 136.960938 236.765625 C 136.765625 237.210938 136.808594 237.726562 137.074219 238.132812 C 137.339844 238.539062 137.792969 238.785156 138.28125 238.785156 L 170.515625 238.785156 C 171.003906 238.785156 171.457031 238.542969 171.722656 238.136719 C 171.988281 237.726562 172.03125 237.214844 171.835938 236.765625 L 168.171875 228.375 C 167.9375 227.847656 167.425781 227.507812 166.851562 227.507812 L 141.96875 227.507812 C 141.398438 227.507812 140.878906 227.851562 140.648438 228.371094 L 141.96875 228.949219 L 141.96875 230.394531 L 165.90625 230.394531 L 168.3125 235.90625 L 140.488281 235.90625 L 143.285156 229.53125 L 141.96875 228.949219 L 141.96875 230.394531 L 141.96875 228.949219 " fill-opacity="1" fill-rule="nonzero"/><path fill="rgb(98.81897%, 80.389404%, 20.388794%)" d="M 176.738281 251.582031 L 172.613281 242.144531 L 136.171875 242.144531 L 132.023438 251.582031 L 176.738281 251.582031 " fill-opacity="1" fill-rule="nonzero"/><path fill="rgb(13.729858%, 12.159729%, 12.548828%)" d="M 176.738281 251.582031 L 178.054688 251.003906 L 173.933594 241.566406 C 173.703125 241.039062 173.1875 240.699219 172.613281 240.699219 L 136.171875 240.699219 C 135.605469 240.699219 135.082031 241.039062 134.851562 241.558594 L 130.703125 251.003906 C 130.511719 251.449219 130.550781 251.964844 130.816406 252.371094 C 131.085938 252.78125 131.539062 253.023438 132.023438 253.023438 L 176.738281 253.023438 C 177.222656 253.023438 177.675781 252.78125 177.941406 252.375 C 178.207031 251.964844 178.25 251.453125 178.054688 251.003906 L 176.738281 251.582031 L 176.738281 250.140625 L 134.230469 250.140625 L 137.113281 243.585938 L 171.667969 243.585938 L 175.417969 252.160156 L 176.738281 251.582031 L 176.738281 250.140625 L 176.738281 251.582031 " fill-opacity="1" fill-rule="nonzero"/><path fill="rgb(95.289612%, 36.859131%, 28.239441%)" d="M 181.828125 261.027344 C 181.828125 261.359375 181.570312 261.625 181.246094 261.625 L 127.945312 261.625 C 127.625 261.625 127.359375 261.359375 127.359375 261.027344 L 127.359375 257.28125 C 127.359375 256.949219 127.625 256.679688 127.945312 256.679688 L 181.246094 256.679688 C 181.570312 256.679688 181.828125 256.949219 181.828125 257.28125 L 181.828125 261.027344 " fill-opacity="1" fill-rule="nonzero"/><g clip-path="url(#clip-7)"><path fill="rgb(13.729858%, 12.159729%, 12.548828%)" d="M 181.828125 261.027344 L 180.386719 261.027344 L 181.21875 261.027344 L 180.625 260.445312 C 180.472656 260.601562 180.386719 260.8125 180.386719 261.027344 L 181.21875 261.027344 L 180.625 260.445312 L 181.246094 261.050781 L 181.246094 260.183594 C 181.003906 260.179688 180.769531 260.289062 180.625 260.445312 L 181.246094 261.050781 L 181.246094 260.183594 L 127.945312 260.183594 L 127.945312 261.050781 L 128.566406 260.445312 C 128.417969 260.292969 128.1875 260.183594 127.945312 260.183594 L 127.945312 261.050781 L 128.566406 260.445312 L 127.964844 261.027344 L 128.800781 261.027344 C 128.800781 260.808594 128.714844 260.597656 128.566406 260.445312 L 127.964844 261.027344 L 128.800781 261.027344 L 128.800781 257.28125 L 127.964844 257.28125 L 128.566406 257.859375 C 128.714844 257.707031 128.800781 257.496094 128.800781 257.28125 L 127.964844 257.28125 L 128.566406 257.859375 L 127.941406 257.253906 L 127.945312 258.121094 C 128.1875 258.121094 128.417969 258.011719 128.566406 257.859375 L 127.941406 257.253906 L 127.945312 258.121094 L 181.246094 258.121094 L 181.246094 257.253906 L 180.625 257.859375 C 180.769531 258.011719 181.003906 258.121094 181.246094 258.121094 L 181.246094 257.253906 L 180.625 257.859375 L 181.21875 257.28125 L 180.386719 257.28125 C 180.386719 257.496094 180.472656 257.707031 180.625 257.859375 L 181.21875 257.28125 L 180.386719 257.28125 L 180.386719 261.027344 L 183.269531 261.027344 L 183.269531 257.28125 C 183.269531 256.734375 183.050781 256.222656 182.695312 255.851562 C 182.335938 255.480469 181.8125 255.234375 181.246094 255.238281 L 127.945312 255.238281 C 127.375 255.238281 126.851562 255.480469 126.496094 255.851562 C 126.136719 256.222656 125.921875 256.730469 125.921875 257.28125 L 125.921875 261.027344 C 125.921875 261.574219 126.136719 262.085938 126.496094 262.453125 C 126.855469 262.824219 127.375 263.066406 127.945312 263.066406 L 181.246094 263.066406 C 181.8125 263.066406 182.335938 262.824219 182.691406 262.453125 C 183.050781 262.085938 183.269531 261.574219 183.269531 261.027344 L 181.828125 261.027344 " fill-opacity="1" fill-rule="nonzero"/></g><path fill="rgb(95.289612%, 36.859131%, 28.239441%)" d="M 216.105469 255.351562 L 185.410156 185.078125 L 177.804688 185.078125 L 146.933594 255.351562 L 216.105469 255.351562 " fill-opacity="1" fill-rule="nonzero"/><path fill="rgb(13.729858%, 12.159729%, 12.548828%)" d="M 216.105469 255.351562 L 217.425781 254.773438 L 186.730469 184.5 C 186.5 183.976562 185.984375 183.636719 185.410156 183.636719 L 177.804688 183.636719 C 177.234375 183.636719 176.714844 183.976562 176.484375 184.5 L 145.613281 254.769531 C 145.421875 255.214844 145.460938 255.730469 145.726562 256.140625 C 145.996094 256.546875 146.449219 256.792969 146.933594 256.792969 L 216.105469 256.792969 C 216.589844 256.792969 217.042969 256.546875 217.3125 256.140625 C 217.578125 255.734375 217.621094 255.21875 217.425781 254.773438 L 216.105469 255.351562 L 216.105469 253.910156 L 149.140625 253.910156 L 178.746094 186.519531 L 184.464844 186.519531 L 214.785156 255.929688 L 216.105469 255.351562 L 216.105469 253.910156 L 216.105469 255.351562 " fill-opacity="1" fill-rule="nonzero"/><path fill="rgb(98.81897%, 80.389404%, 20.388794%)" d="M 172.015625 198.257812 L 167.699219 208.085938 L 195.460938 208.085938 L 191.164062 198.257812 L 172.015625 198.257812 " fill-opacity="1" fill-rule="nonzero"/><path fill="rgb(13.729858%, 12.159729%, 12.548828%)" d="M 172.015625 198.257812 L 170.699219 197.675781 L 166.378906 207.503906 C 166.183594 207.949219 166.226562 208.464844 166.492188 208.871094 C 166.757812 209.277344 167.214844 209.523438 167.699219 209.523438 L 195.460938 209.523438 C 195.945312 209.523438 196.398438 209.277344 196.667969 208.875 C 196.929688 208.464844 196.972656 207.953125 196.78125 207.503906 L 192.484375 197.675781 C 192.253906 197.152344 191.738281 196.8125 191.164062 196.8125 L 172.015625 196.8125 C 171.449219 196.8125 170.929688 197.152344 170.699219 197.675781 L 172.015625 198.257812 L 172.015625 199.699219 L 190.222656 199.699219 L 193.257812 206.640625 L 169.90625 206.640625 L 173.335938 198.835938 L 172.015625 198.257812 L 172.015625 199.699219 L 172.015625 198.257812 " fill-opacity="1" fill-rule="nonzero"/><path fill="rgb(98.81897%, 80.389404%, 20.388794%)" d="M 164.207031 216.03125 L 159.0625 227.742188 L 204.046875 227.742188 L 198.929688 216.03125 L 164.207031 216.03125 " fill-opacity="1" fill-rule="nonzero"/><path fill="rgb(13.729858%, 12.159729%, 12.548828%)" d="M 164.207031 216.03125 L 162.886719 215.453125 L 157.742188 227.164062 C 157.546875 227.609375 157.589844 228.125 157.855469 228.53125 C 158.121094 228.941406 158.578125 229.183594 159.0625 229.183594 L 204.046875 229.183594 C 204.53125 229.183594 204.984375 228.941406 205.253906 228.535156 C 205.519531 228.125 205.558594 227.613281 205.367188 227.164062 L 200.25 215.457031 C 200.019531 214.929688 199.503906 214.589844 198.929688 214.589844 L 164.207031 214.589844 C 163.636719 214.589844 163.117188 214.929688 162.886719 215.453125 L 164.207031 216.03125 L 164.207031 217.476562 L 197.988281 217.476562 L 201.84375 226.300781 L 161.269531 226.300781 L 165.523438 216.613281 L 164.207031 216.03125 L 164.207031 217.476562 L 164.207031 216.03125 " fill-opacity="1" fill-rule="nonzero"/><path fill="rgb(98.81897%, 80.389404%, 20.388794%)" d="M 212.726562 247.613281 L 206.96875 234.4375 L 156.121094 234.4375 L 150.332031 247.613281 L 212.726562 247.613281 " fill-opacity="1" fill-rule="nonzero"/><path fill="rgb(13.729858%, 12.159729%, 12.548828%)" d="M 212.726562 247.613281 L 214.042969 247.035156 L 208.289062 233.859375 C 208.058594 233.332031 207.542969 232.996094 206.96875 232.996094 L 156.121094 232.996094 C 155.550781 232.996094 155.03125 233.335938 154.800781 233.855469 L 149.015625 247.03125 C 148.816406 247.476562 148.859375 247.996094 149.125 248.402344 C 149.390625 248.808594 149.847656 249.054688 150.332031 249.054688 L 212.726562 249.054688 C 213.210938 249.054688 213.664062 248.808594 213.933594 248.402344 C 214.195312 247.996094 214.238281 247.480469 214.042969 247.035156 L 212.726562 247.613281 L 212.726562 246.171875 L 152.539062 246.171875 L 157.0625 235.878906 L 206.027344 235.878906 L 211.40625 248.1875 L 212.726562 247.613281 L 212.726562 246.171875 L 212.726562 247.613281 " fill-opacity="1" fill-rule="nonzero"/><path fill="rgb(95.289612%, 36.859131%, 28.239441%)" d="M 219.828125 260.789062 C 219.828125 261.25 219.46875 261.625 219.015625 261.625 L 144.636719 261.625 C 144.191406 261.625 143.828125 261.25 143.828125 260.789062 L 143.828125 255.558594 C 143.828125 255.101562 144.191406 254.726562 144.636719 254.726562 L 219.015625 254.726562 C 219.46875 254.726562 219.828125 255.101562 219.828125 255.558594 L 219.828125 260.789062 " fill-opacity="1" fill-rule="nonzero"/><g clip-path="url(#clip-8)"><path fill="rgb(13.729858%, 12.159729%, 12.548828%)" d="M 219.828125 260.789062 L 218.386719 260.789062 L 218.980469 260.789062 L 218.554688 260.378906 C 218.445312 260.492188 218.386719 260.644531 218.386719 260.789062 L 218.980469 260.789062 L 218.554688 260.378906 L 219.015625 260.824219 L 219.015625 260.183594 C 218.835938 260.179688 218.660156 260.265625 218.554688 260.378906 L 219.015625 260.824219 L 219.015625 260.183594 L 144.636719 260.183594 L 144.636719 260.824219 L 145.097656 260.378906 C 144.996094 260.265625 144.820312 260.183594 144.636719 260.183594 L 144.636719 260.824219 L 145.097656 260.378906 L 144.675781 260.789062 L 145.269531 260.789062 C 145.269531 260.640625 145.207031 260.484375 145.097656 260.378906 L 144.675781 260.789062 L 145.269531 260.789062 L 145.269531 255.558594 L 144.671875 255.558594 L 145.097656 255.972656 C 145.207031 255.863281 145.269531 255.710938 145.269531 255.558594 L 144.671875 255.558594 L 145.097656 255.972656 L 144.636719 255.527344 L 144.636719 256.167969 C 144.820312 256.167969 144.992188 256.082031 145.097656 255.972656 L 144.636719 255.527344 L 144.636719 256.167969 L 219.015625 256.167969 L 219.015625 255.527344 L 218.554688 255.972656 C 218.664062 256.085938 218.835938 256.167969 219.015625 256.167969 L 219.015625 255.527344 L 218.554688 255.972656 L 218.980469 255.558594 L 218.386719 255.558594 C 218.386719 255.707031 218.445312 255.859375 218.554688 255.972656 L 218.980469 255.558594 L 218.386719 255.558594 L 218.386719 260.789062 L 221.269531 260.789062 L 221.269531 255.558594 C 221.269531 254.953125 221.03125 254.378906 220.628906 253.964844 C 220.230469 253.550781 219.648438 253.28125 219.015625 253.285156 L 144.636719 253.285156 C 144.007812 253.28125 143.425781 253.550781 143.027344 253.964844 C 142.628906 254.375 142.386719 254.949219 142.386719 255.558594 L 142.386719 260.789062 C 142.386719 261.402344 142.628906 261.972656 143.027344 262.382812 C 143.425781 262.796875 144.003906 263.066406 144.636719 263.066406 L 219.015625 263.066406 C 219.648438 263.066406 220.230469 262.796875 220.628906 262.382812 C 221.03125 261.96875 221.269531 261.398438 221.269531 260.789062 L 219.828125 260.789062 " fill-opacity="1" fill-rule="nonzero"/></g></svg>
