<svg xmlns="http://www.w3.org/2000/svg" xmlns:xlink="http://www.w3.org/1999/xlink" width="40" zoomAndPan="magnify" viewBox="0 0 375 374.999991" height="40" preserveAspectRatio="xMidYMid meet" version="1.0"><defs><filter xmlns:xlink="http://www.w3.org/1999/xlink" x="0%" y="0%" width="100%" xlink:type="simple" xlink:actuate="onLoad" height="100%" id="filter-remove-color" xlink:show="other"><feColorMatrix values="0 0 0 0 1 0 0 0 0 1 0 0 0 0 1 0 0 0 1 0" color-interpolation-filters="sRGB"/></filter><mask id="mask-0"><g filter="url(#filter-remove-color)"><rect x="-37.5" width="450" fill="rgb(0%, 0%, 0%)" y="-37.499999" height="449.999989" fill-opacity="0.8"/></g></mask><clipPath id="clip-0"><path d="M 0.753906 0.753906 L 366.003906 0.753906 L 366.003906 366.003906 L 0.753906 366.003906 Z M 0.753906 0.753906 " clip-rule="nonzero"/></clipPath><clipPath id="clip-1"><rect x="0" width="367" y="0" height="367"/></clipPath><clipPath id="clip-2"><path d="M 66.484375 66.484375 L 308.734375 66.484375 L 308.734375 308.734375 L 66.484375 308.734375 Z M 66.484375 66.484375 " clip-rule="nonzero"/></clipPath></defs><g mask="url(#mask-0)"><g transform="matrix(1, 0, 0, 1, 4, 4)"><g id="source-5" clip-path="url(#clip-1)"><g clip-path="url(#clip-0)"><path fill="rgb(99.21875%, 79.60968%, 34.509277%)" d="M 366.003906 183.378906 C 366 186.367188 365.929688 189.351562 365.78125 192.339844 C 365.636719 195.324219 365.414062 198.304688 365.121094 201.277344 C 364.828125 204.25 364.464844 207.21875 364.023438 210.171875 C 363.585938 213.128906 363.074219 216.074219 362.492188 219.003906 C 361.910156 221.9375 361.253906 224.851562 360.527344 227.75 C 359.800781 230.652344 359.003906 233.53125 358.136719 236.390625 C 357.269531 239.25 356.332031 242.085938 355.328125 244.902344 C 354.320312 247.714844 353.246094 250.503906 352.101562 253.265625 C 350.957031 256.027344 349.746094 258.757812 348.46875 261.460938 C 347.191406 264.160156 345.847656 266.828125 344.4375 269.464844 C 343.027344 272.101562 341.554688 274.703125 340.019531 277.265625 C 338.484375 279.828125 336.882812 282.351562 335.222656 284.839844 C 333.5625 287.324219 331.84375 289.765625 330.0625 292.167969 C 328.28125 294.566406 326.445312 296.921875 324.546875 299.234375 C 322.652344 301.542969 320.699219 303.804688 318.691406 306.019531 C 316.6875 308.234375 314.625 310.398438 312.511719 312.511719 C 310.398438 314.625 308.234375 316.6875 306.019531 318.691406 C 303.804688 320.699219 301.542969 322.652344 299.234375 324.546875 C 296.921875 326.445312 294.566406 328.28125 292.167969 330.0625 C 289.765625 331.84375 287.324219 333.5625 284.839844 335.222656 C 282.351562 336.882812 279.828125 338.484375 277.265625 340.019531 C 274.703125 341.554688 272.101562 343.027344 269.464844 344.4375 C 266.828125 345.847656 264.160156 347.191406 261.460938 348.46875 C 258.757812 349.746094 256.027344 350.957031 253.265625 352.101562 C 250.503906 353.246094 247.714844 354.320312 244.902344 355.328125 C 242.085938 356.332031 239.25 357.269531 236.390625 358.136719 C 233.53125 359.003906 230.652344 359.800781 227.75 360.527344 C 224.851562 361.253906 221.9375 361.910156 219.003906 362.492188 C 216.074219 363.074219 213.128906 363.585938 210.171875 364.023438 C 207.21875 364.464844 204.25 364.828125 201.277344 365.121094 C 198.304688 365.414062 195.324219 365.636719 192.339844 365.78125 C 189.351562 365.929688 186.367188 366 183.378906 366.003906 C 180.386719 366 177.402344 365.929688 174.417969 365.78125 C 171.429688 365.636719 168.449219 365.414062 165.476562 365.121094 C 162.503906 364.828125 159.535156 364.464844 156.582031 364.023438 C 153.625 363.585938 150.679688 363.074219 147.75 362.492188 C 144.816406 361.910156 141.902344 361.253906 139.003906 360.527344 C 136.101562 359.800781 133.222656 359.003906 130.363281 358.136719 C 127.503906 357.269531 124.667969 356.332031 121.851562 355.328125 C 119.039062 354.320312 116.25 353.246094 113.488281 352.101562 C 110.726562 350.957031 107.996094 349.746094 105.292969 348.46875 C 102.59375 347.191406 99.925781 345.847656 97.289062 344.4375 C 94.652344 343.027344 92.050781 341.554688 89.488281 340.019531 C 86.925781 338.484375 84.402344 336.882812 81.914062 335.222656 C 79.429688 333.5625 76.988281 331.84375 74.585938 330.0625 C 72.1875 328.28125 69.832031 326.445312 67.519531 324.546875 C 65.210938 322.652344 62.949219 320.699219 60.734375 318.691406 C 58.519531 316.6875 56.355469 314.625 54.242188 312.511719 C 52.128906 310.398438 50.066406 308.234375 48.0625 306.019531 C 46.054688 303.804688 44.101562 301.542969 42.207031 299.234375 C 40.308594 296.921875 38.472656 294.566406 36.691406 292.167969 C 34.910156 289.765625 33.191406 287.324219 31.53125 284.839844 C 29.871094 282.351562 28.269531 279.828125 26.734375 277.265625 C 25.199219 274.703125 23.726562 272.101562 22.316406 269.464844 C 20.90625 266.828125 19.5625 264.160156 18.285156 261.460938 C 17.007812 258.757812 15.796875 256.027344 14.652344 253.265625 C 13.507812 250.503906 12.433594 247.714844 11.425781 244.902344 C 10.421875 242.085938 9.484375 239.25 8.617188 236.390625 C 7.75 233.53125 6.953125 230.652344 6.226562 227.75 C 5.5 224.851562 4.84375 221.9375 4.261719 219.003906 C 3.679688 216.074219 3.167969 213.128906 2.730469 210.171875 C 2.289062 207.21875 1.925781 204.25 1.632812 201.277344 C 1.339844 198.304688 1.117188 195.324219 0.972656 192.339844 C 0.824219 189.351562 0.753906 186.367188 0.753906 183.378906 C 0.753906 180.386719 0.824219 177.402344 0.972656 174.414062 C 1.117188 171.429688 1.339844 168.449219 1.632812 165.476562 C 1.925781 162.503906 2.289062 159.535156 2.730469 156.582031 C 3.167969 153.625 3.679688 150.679688 4.261719 147.75 C 4.84375 144.816406 5.5 141.902344 6.226562 139.003906 C 6.953125 136.101562 7.75 133.222656 8.617188 130.363281 C 9.484375 127.503906 10.421875 124.667969 11.425781 121.851562 C 12.433594 119.039062 13.507812 116.25 14.652344 113.488281 C 15.796875 110.726562 17.007812 107.996094 18.285156 105.292969 C 19.5625 102.59375 20.90625 99.925781 22.316406 97.289062 C 23.726562 94.652344 25.199219 92.050781 26.734375 89.488281 C 28.269531 86.925781 29.871094 84.402344 31.53125 81.914062 C 33.191406 79.429688 34.910156 76.988281 36.691406 74.585938 C 38.472656 72.1875 40.308594 69.832031 42.207031 67.519531 C 44.101562 65.210938 46.054688 62.949219 48.0625 60.734375 C 50.066406 58.519531 52.128906 56.355469 54.242188 54.242188 C 56.355469 52.128906 58.519531 50.066406 60.734375 48.0625 C 62.949219 46.054688 65.210938 44.101562 67.519531 42.207031 C 69.832031 40.308594 72.1875 38.472656 74.585938 36.691406 C 76.988281 34.910156 79.429688 33.191406 81.914062 31.53125 C 84.402344 29.871094 86.925781 28.269531 89.488281 26.734375 C 92.050781 25.199219 94.652344 23.726562 97.289062 22.316406 C 99.925781 20.90625 102.59375 19.5625 105.292969 18.285156 C 107.996094 17.007812 110.726562 15.796875 113.488281 14.652344 C 116.25 13.507812 119.039062 12.433594 121.851562 11.425781 C 124.667969 10.421875 127.503906 9.484375 130.363281 8.617188 C 133.222656 7.75 136.101562 6.953125 139.003906 6.226562 C 141.902344 5.5 144.816406 4.84375 147.75 4.261719 C 150.679688 3.679688 153.625 3.167969 156.582031 2.730469 C 159.535156 2.289062 162.503906 1.925781 165.476562 1.632812 C 168.449219 1.339844 171.429688 1.117188 174.417969 0.972656 C 177.402344 0.824219 180.386719 0.753906 183.378906 0.753906 C 186.367188 0.753906 189.351562 0.824219 192.339844 0.972656 C 195.324219 1.117188 198.304688 1.339844 201.277344 1.632812 C 204.25 1.925781 207.21875 2.289062 210.171875 2.730469 C 213.128906 3.167969 216.074219 3.679688 219.003906 4.261719 C 221.9375 4.84375 224.851562 5.5 227.75 6.226562 C 230.652344 6.953125 233.53125 7.75 236.390625 8.617188 C 239.25 9.484375 242.085938 10.421875 244.902344 11.425781 C 247.714844 12.433594 250.503906 13.507812 253.265625 14.652344 C 256.027344 15.796875 258.757812 17.007812 261.460938 18.285156 C 264.160156 19.5625 266.828125 20.90625 269.464844 22.316406 C 272.101562 23.726562 274.703125 25.199219 277.265625 26.734375 C 279.828125 28.269531 282.351562 29.871094 284.839844 31.53125 C 287.324219 33.191406 289.765625 34.910156 292.167969 36.691406 C 294.566406 38.472656 296.921875 40.308594 299.234375 42.207031 C 301.542969 44.101562 303.804688 46.054688 306.019531 48.0625 C 308.234375 50.066406 310.398438 52.128906 312.511719 54.242188 C 314.625 56.355469 316.6875 58.519531 318.691406 60.734375 C 320.699219 62.949219 322.652344 65.210938 324.546875 67.519531 C 326.445312 69.832031 328.28125 72.1875 330.0625 74.585938 C 331.84375 76.988281 333.5625 79.429688 335.222656 81.914062 C 336.882812 84.402344 338.484375 86.925781 340.019531 89.488281 C 341.554688 92.050781 343.027344 94.652344 344.4375 97.289062 C 345.847656 99.925781 347.191406 102.59375 348.46875 105.292969 C 349.746094 107.996094 350.957031 110.726562 352.101562 113.488281 C 353.246094 116.25 354.320312 119.039062 355.328125 121.851562 C 356.332031 124.667969 357.269531 127.503906 358.136719 130.363281 C 359.003906 133.222656 359.800781 136.101562 360.527344 139.003906 C 361.253906 141.902344 361.910156 144.816406 362.492188 147.75 C 363.074219 150.679688 363.585938 153.625 364.023438 156.582031 C 364.464844 159.535156 364.828125 162.503906 365.121094 165.476562 C 365.414062 168.449219 365.636719 171.429688 365.78125 174.414062 C 365.929688 177.402344 366 180.386719 366.003906 183.378906 Z M 366.003906 183.378906 " fill-opacity="1" fill-rule="nonzero"/></g></g></g></g><path fill="rgb(94.119263%, 73.728943%, 36.859131%)" d="M 211.054688 93.835938 C 211.054688 98.902344 209.40625 103.847656 206.367188 107.894531 L 203.894531 111.191406 C 233.976562 117.570312 257.652344 141.242188 264.03125 171.324219 L 267.328125 168.851562 C 271.371094 165.816406 276.316406 164.167969 281.382812 164.167969 C 281.703125 164.167969 282.023438 164.195312 282.347656 164.210938 L 282.238281 163.433594 C 279.691406 153.390625 275.601562 143.914062 270.058594 135.226562 L 275.402344 126.207031 L 249.011719 99.820312 L 239.992188 105.160156 C 231.308594 99.621094 221.828125 95.53125 211.785156 92.980469 L 211.007812 92.980469 C 211.023438 93.257812 211.054688 93.546875 211.054688 93.835938 " fill-opacity="1" fill-rule="nonzero"/><path fill="rgb(94.119263%, 73.728943%, 36.859131%)" d="M 282.238281 211.007812 C 281.964844 211.023438 281.675781 211.054688 281.382812 211.054688 C 276.316406 211.054688 271.371094 209.40625 267.328125 206.367188 L 264.03125 203.894531 C 257.652344 233.976562 233.976562 257.652344 203.894531 264.03125 L 206.367188 267.328125 C 209.40625 271.371094 211.054688 276.316406 211.054688 281.382812 C 211.054688 281.71875 211.023438 282.039062 211.007812 282.359375 L 211.3125 282.359375 L 211.785156 282.238281 C 221.828125 279.691406 231.308594 275.601562 239.992188 270.058594 L 249.011719 275.402344 L 275.402344 249.011719 L 270.058594 239.992188 C 275.601562 231.308594 279.691406 221.828125 282.238281 211.785156 L 282.238281 211.007812 " fill-opacity="1" fill-rule="nonzero"/><path fill="rgb(94.119263%, 73.728943%, 36.859131%)" d="M 92.980469 164.210938 C 93.257812 164.195312 93.546875 164.167969 93.835938 164.167969 C 98.902344 164.167969 103.847656 165.816406 107.894531 168.851562 L 111.191406 171.324219 C 117.570312 141.242188 141.242188 117.570312 171.324219 111.191406 L 168.851562 107.894531 C 165.816406 103.847656 164.167969 98.902344 164.167969 93.835938 C 164.167969 93.515625 164.195312 93.195312 164.210938 92.875 L 163.433594 92.980469 C 153.390625 95.53125 143.914062 99.621094 135.226562 105.160156 L 126.207031 99.820312 L 99.820312 126.207031 L 105.160156 135.226562 C 99.621094 143.914062 95.53125 153.390625 92.980469 163.433594 L 92.980469 164.210938 " fill-opacity="1" fill-rule="nonzero"/><path fill="rgb(94.119263%, 73.728943%, 36.859131%)" d="M 164.167969 281.382812 C 164.167969 276.316406 165.816406 271.371094 168.851562 267.328125 L 171.324219 264.03125 C 141.242188 257.652344 117.570312 233.976562 111.191406 203.894531 L 107.894531 206.367188 C 103.847656 209.40625 98.902344 211.054688 93.835938 211.054688 C 93.515625 211.054688 93.195312 211.023438 92.875 211.007812 L 92.980469 211.785156 C 95.53125 221.828125 99.621094 231.308594 105.160156 239.992188 L 99.820312 249.011719 L 126.207031 275.402344 L 135.226562 270.058594 C 143.914062 275.601562 153.390625 279.691406 163.433594 282.238281 L 164.210938 282.238281 C 164.195312 281.964844 164.167969 281.675781 164.167969 281.382812 " fill-opacity="1" fill-rule="nonzero"/><path fill="rgb(94.119263%, 73.728943%, 36.859131%)" d="M 187.609375 203.238281 C 178.972656 203.238281 171.980469 196.25 171.980469 187.609375 C 171.980469 178.972656 178.972656 171.980469 187.609375 171.980469 C 196.25 171.980469 203.238281 178.972656 203.238281 187.609375 C 203.238281 196.25 196.25 203.238281 187.609375 203.238281 Z M 230.589844 176.988281 L 220.988281 173.78125 L 225.523438 164.730469 L 210.488281 149.699219 L 201.4375 154.230469 L 198.234375 144.628906 L 176.988281 144.628906 L 173.78125 154.230469 L 164.730469 149.699219 L 149.699219 164.730469 L 154.230469 173.78125 L 144.628906 176.988281 L 144.628906 198.234375 L 154.230469 201.4375 L 149.699219 210.488281 L 164.730469 225.523438 L 173.78125 220.988281 L 176.988281 230.589844 L 198.234375 230.589844 L 201.4375 220.988281 L 210.488281 225.523438 L 225.523438 210.488281 L 220.988281 201.4375 L 230.589844 198.234375 L 230.589844 176.988281 " fill-opacity="1" fill-rule="nonzero"/><path fill="rgb(0%, 0%, 0%)" d="M 187.609375 199.332031 C 181.140625 199.332031 175.886719 194.082031 175.886719 187.609375 C 175.886719 181.140625 181.140625 175.886719 187.609375 175.886719 C 194.082031 175.886719 199.332031 181.140625 199.332031 187.609375 C 199.332031 194.082031 194.082031 199.332031 187.609375 199.332031 Z M 187.609375 168.074219 C 176.835938 168.074219 168.074219 176.835938 168.074219 187.609375 C 168.074219 198.386719 176.835938 207.144531 187.609375 207.144531 C 198.386719 207.144531 207.144531 198.386719 207.144531 187.609375 C 207.144531 176.835938 198.386719 168.074219 187.609375 168.074219 " fill-opacity="1" fill-rule="nonzero"/><g clip-path="url(#clip-2)"><path fill="rgb(0%, 0%, 0%)" d="M 277.476562 187.609375 C 277.476562 185.457031 279.230469 183.703125 281.382812 183.703125 C 283.535156 183.703125 285.292969 185.457031 285.292969 187.609375 C 285.292969 189.761719 283.535156 191.515625 281.382812 191.515625 C 279.230469 191.515625 277.476562 189.761719 277.476562 187.609375 Z M 281.382812 207.144531 C 277.1875 207.144531 273.019531 205.757812 269.664062 203.238281 L 261.847656 197.378906 L 261.847656 191.515625 L 270.378906 191.515625 C 271.996094 196.050781 276.300781 199.332031 281.382812 199.332031 C 287.855469 199.332031 293.105469 194.082031 293.105469 187.609375 C 293.105469 181.140625 287.855469 175.886719 281.382812 175.886719 C 276.300781 175.886719 271.996094 179.167969 270.378906 183.703125 L 261.847656 183.703125 L 261.847656 177.84375 L 269.664062 171.980469 C 273.019531 169.460938 277.1875 168.074219 281.382812 168.074219 C 292.160156 168.074219 300.921875 176.835938 300.921875 187.609375 C 300.921875 198.386719 292.160156 207.144531 281.382812 207.144531 Z M 242.769531 237.246094 L 218 212.472656 L 212.472656 218 L 237.246094 242.769531 C 228.347656 250.765625 217.496094 256.628906 205.46875 259.605469 L 203.238281 256.644531 L 203.238281 246.21875 C 203.238281 241.914062 199.730469 238.40625 195.425781 238.40625 L 191.515625 238.40625 L 191.515625 226.683594 L 183.703125 226.683594 L 183.703125 238.40625 L 179.796875 238.40625 C 175.492188 238.40625 171.980469 241.914062 171.980469 246.21875 L 171.980469 256.644531 L 169.753906 259.605469 C 157.726562 256.628906 146.875 250.765625 137.976562 242.769531 L 162.746094 218 L 157.222656 212.472656 L 132.449219 237.246094 C 124.453125 228.347656 118.59375 217.496094 115.617188 205.46875 L 118.578125 203.238281 L 129 203.238281 C 133.304688 203.238281 136.816406 199.730469 136.816406 195.425781 L 136.816406 191.515625 L 148.539062 191.515625 L 148.539062 183.703125 L 136.816406 183.703125 L 136.816406 179.796875 C 136.816406 175.492188 133.304688 171.980469 129 171.980469 L 118.578125 171.980469 L 115.617188 169.753906 C 118.59375 157.726562 124.453125 146.875 132.449219 137.976562 L 157.222656 162.746094 L 162.746094 157.222656 L 137.976562 132.449219 C 146.875 124.453125 157.726562 118.59375 169.753906 115.617188 L 171.980469 118.578125 L 171.980469 129 C 171.980469 133.304688 175.492188 136.816406 179.796875 136.816406 L 183.703125 136.816406 L 183.703125 148.539062 L 191.515625 148.539062 L 191.515625 136.816406 L 195.425781 136.816406 C 199.730469 136.816406 203.238281 133.304688 203.238281 129 L 203.238281 118.578125 L 205.46875 115.617188 C 217.496094 118.59375 228.347656 124.453125 237.246094 132.449219 L 212.472656 157.222656 L 218 162.746094 L 242.769531 137.976562 C 250.765625 146.875 256.628906 157.726562 259.605469 169.753906 L 256.644531 171.980469 L 246.21875 171.980469 C 241.914062 171.980469 238.40625 175.492188 238.40625 179.796875 L 238.40625 183.703125 L 226.683594 183.703125 L 226.683594 191.515625 L 238.40625 191.515625 L 238.40625 195.425781 C 238.40625 199.730469 241.914062 203.238281 246.21875 203.238281 L 256.644531 203.238281 L 259.605469 205.46875 C 256.628906 217.496094 250.765625 228.347656 242.769531 237.246094 Z M 191.515625 281.382812 C 191.515625 283.535156 189.761719 285.292969 187.609375 285.292969 C 185.457031 285.292969 183.703125 283.535156 183.703125 281.382812 C 183.703125 279.230469 185.457031 277.476562 187.609375 277.476562 C 189.761719 277.476562 191.515625 279.230469 191.515625 281.382812 Z M 195.425781 246.21875 L 195.425781 254.035156 L 179.796875 254.035156 L 179.796875 246.21875 Z M 187.609375 300.921875 C 176.835938 300.921875 168.074219 292.160156 168.074219 281.382812 C 168.074219 277.1875 169.460938 273.019531 171.980469 269.664062 L 177.84375 261.847656 L 183.703125 261.847656 L 183.703125 270.378906 C 179.167969 271.996094 175.886719 276.300781 175.886719 281.382812 C 175.886719 287.855469 181.140625 293.105469 187.609375 293.105469 C 194.082031 293.105469 199.332031 287.855469 199.332031 281.382812 C 199.332031 276.300781 196.050781 271.996094 191.515625 270.378906 L 191.515625 261.847656 L 197.378906 261.847656 L 203.238281 269.664062 C 205.757812 273.019531 207.144531 277.1875 207.144531 281.382812 C 207.144531 292.160156 198.386719 300.921875 187.609375 300.921875 Z M 97.742188 187.609375 C 97.742188 189.761719 95.988281 191.515625 93.835938 191.515625 C 91.683594 191.515625 89.929688 189.761719 89.929688 187.609375 C 89.929688 185.457031 91.683594 183.703125 93.835938 183.703125 C 95.988281 183.703125 97.742188 185.457031 97.742188 187.609375 Z M 93.835938 207.144531 C 83.058594 207.144531 74.300781 198.386719 74.300781 187.609375 C 74.300781 176.835938 83.058594 168.074219 93.835938 168.074219 C 98.03125 168.074219 102.199219 169.460938 105.558594 171.980469 L 113.371094 177.84375 L 113.371094 183.703125 L 104.839844 183.703125 C 103.222656 179.167969 98.917969 175.886719 93.835938 175.886719 C 87.363281 175.886719 82.113281 181.140625 82.113281 187.609375 C 82.113281 194.082031 87.363281 199.332031 93.835938 199.332031 C 98.917969 199.332031 103.222656 196.050781 104.839844 191.515625 L 113.371094 191.515625 L 113.371094 197.378906 L 105.558594 203.238281 C 102.199219 205.757812 98.03125 207.144531 93.835938 207.144531 Z M 121.1875 179.796875 L 129 179.796875 L 129 195.425781 L 121.1875 195.425781 Z M 183.703125 93.835938 C 183.703125 91.683594 185.457031 89.929688 187.609375 89.929688 C 189.761719 89.929688 191.515625 91.683594 191.515625 93.835938 C 191.515625 95.988281 189.761719 97.742188 187.609375 97.742188 C 185.457031 97.742188 183.703125 95.988281 183.703125 93.835938 Z M 179.796875 129 L 179.796875 121.1875 L 195.425781 121.1875 L 195.425781 129 Z M 187.609375 74.300781 C 198.386719 74.300781 207.144531 83.058594 207.144531 93.835938 C 207.144531 98.03125 205.757812 102.199219 203.238281 105.558594 L 197.378906 113.371094 L 191.515625 113.371094 L 191.515625 104.839844 C 196.050781 103.222656 199.332031 98.917969 199.332031 93.835938 C 199.332031 87.363281 194.082031 82.113281 187.609375 82.113281 C 181.140625 82.113281 175.886719 87.363281 175.886719 93.835938 C 175.886719 98.917969 179.167969 103.222656 183.703125 104.839844 L 183.703125 113.371094 L 177.84375 113.371094 L 171.980469 105.558594 C 169.460938 102.199219 168.074219 98.03125 168.074219 93.835938 C 168.074219 83.058594 176.835938 74.300781 187.609375 74.300781 Z M 246.21875 195.425781 L 246.21875 179.796875 L 254.035156 179.796875 L 254.035156 195.425781 Z M 281.382812 160.257812 C 276.074219 160.257812 270.851562 161.90625 266.425781 164.824219 C 258.628906 137.792969 237.425781 116.59375 210.414062 108.792969 C 213.3125 104.367188 214.960938 99.148438 214.960938 93.835938 C 214.960938 78.757812 202.691406 66.484375 187.609375 66.484375 C 172.53125 66.484375 160.257812 78.757812 160.257812 93.835938 C 160.257812 99.148438 161.90625 104.367188 164.824219 108.792969 C 137.792969 116.59375 116.59375 137.792969 108.792969 164.808594 C 104.367188 161.90625 99.148438 160.257812 93.835938 160.257812 C 78.757812 160.257812 66.484375 172.53125 66.484375 187.609375 C 66.484375 202.691406 78.757812 214.960938 93.835938 214.960938 C 99.148438 214.960938 104.367188 213.3125 108.792969 210.398438 C 116.59375 237.425781 137.792969 258.628906 164.808594 266.425781 C 161.90625 270.851562 160.257812 276.074219 160.257812 281.382812 C 160.257812 296.464844 172.53125 308.734375 187.609375 308.734375 C 202.691406 308.734375 214.960938 296.464844 214.960938 281.382812 C 214.960938 276.074219 213.3125 270.851562 210.398438 266.425781 C 237.425781 258.628906 258.628906 237.425781 266.425781 210.414062 C 270.851562 213.3125 276.074219 214.960938 281.382812 214.960938 C 296.464844 214.960938 308.734375 202.691406 308.734375 187.609375 C 308.734375 172.53125 296.464844 160.257812 281.382812 160.257812 " fill-opacity="1" fill-rule="nonzero"/></g></svg>
