<svg xmlns="http://www.w3.org/2000/svg" xmlns:xlink="http://www.w3.org/1999/xlink" width="40" zoomAndPan="magnify" viewBox="0 0 375 374.999991" height="40" preserveAspectRatio="xMidYMid meet" version="1.0"><defs><filter xmlns:xlink="http://www.w3.org/1999/xlink" x="0%" y="0%" width="100%" xlink:type="simple" xlink:actuate="onLoad" height="100%" id="filter-remove-color" xlink:show="other"><feColorMatrix values="0 0 0 0 1 0 0 0 0 1 0 0 0 0 1 0 0 0 1 0" color-interpolation-filters="sRGB"/></filter><mask id="mask-0"><g filter="url(#filter-remove-color)"><rect x="-37.5" width="450" fill="rgb(0%, 0%, 0%)" y="-37.499999" height="449.999989" fill-opacity="0.8"/></g></mask><clipPath id="clip-0"><path d="M 0.753906 0.753906 L 366.003906 0.753906 L 366.003906 366.003906 L 0.753906 366.003906 Z M 0.753906 0.753906 " clip-rule="nonzero"/></clipPath><clipPath id="clip-1"><rect x="0" width="367" y="0" height="367"/></clipPath><clipPath id="clip-2"><path d="M 65.175781 73.683594 L 309.675781 73.683594 L 309.675781 281.433594 L 65.175781 281.433594 Z M 65.175781 73.683594 " clip-rule="nonzero"/></clipPath></defs><g mask="url(#mask-0)"><g transform="matrix(1, 0, 0, 1, 4, 4)"><g id="source-5" clip-path="url(#clip-1)"><g clip-path="url(#clip-0)"><path fill="rgb(99.21875%, 79.60968%, 34.509277%)" d="M 366.003906 183.378906 C 366 186.367188 365.929688 189.351562 365.78125 192.339844 C 365.636719 195.324219 365.414062 198.304688 365.121094 201.277344 C 364.828125 204.25 364.464844 207.21875 364.023438 210.171875 C 363.585938 213.128906 363.074219 216.074219 362.492188 219.003906 C 361.910156 221.9375 361.253906 224.851562 360.527344 227.75 C 359.800781 230.652344 359.003906 233.53125 358.136719 236.390625 C 357.269531 239.25 356.332031 242.085938 355.328125 244.902344 C 354.320312 247.714844 353.246094 250.503906 352.101562 253.265625 C 350.957031 256.027344 349.746094 258.757812 348.46875 261.460938 C 347.191406 264.160156 345.847656 266.828125 344.4375 269.464844 C 343.027344 272.101562 341.554688 274.703125 340.019531 277.265625 C 338.484375 279.828125 336.882812 282.351562 335.222656 284.839844 C 333.5625 287.324219 331.84375 289.765625 330.0625 292.167969 C 328.28125 294.566406 326.445312 296.921875 324.546875 299.234375 C 322.652344 301.542969 320.699219 303.804688 318.691406 306.019531 C 316.6875 308.234375 314.625 310.398438 312.511719 312.511719 C 310.398438 314.625 308.234375 316.6875 306.019531 318.691406 C 303.804688 320.699219 301.542969 322.652344 299.234375 324.546875 C 296.921875 326.445312 294.566406 328.28125 292.167969 330.0625 C 289.765625 331.84375 287.324219 333.5625 284.839844 335.222656 C 282.351562 336.882812 279.828125 338.484375 277.265625 340.019531 C 274.703125 341.554688 272.101562 343.027344 269.464844 344.4375 C 266.828125 345.847656 264.160156 347.191406 261.460938 348.46875 C 258.757812 349.746094 256.027344 350.957031 253.265625 352.101562 C 250.503906 353.246094 247.714844 354.320312 244.902344 355.328125 C 242.085938 356.332031 239.25 357.269531 236.390625 358.136719 C 233.53125 359.003906 230.652344 359.800781 227.75 360.527344 C 224.851562 361.253906 221.9375 361.910156 219.003906 362.492188 C 216.074219 363.074219 213.128906 363.585938 210.171875 364.023438 C 207.21875 364.464844 204.25 364.828125 201.277344 365.121094 C 198.304688 365.414062 195.324219 365.636719 192.339844 365.78125 C 189.351562 365.929688 186.367188 366 183.378906 366.003906 C 180.386719 366 177.402344 365.929688 174.417969 365.78125 C 171.429688 365.636719 168.449219 365.414062 165.476562 365.121094 C 162.503906 364.828125 159.535156 364.464844 156.582031 364.023438 C 153.625 363.585938 150.679688 363.074219 147.75 362.492188 C 144.816406 361.910156 141.902344 361.253906 139.003906 360.527344 C 136.101562 359.800781 133.222656 359.003906 130.363281 358.136719 C 127.503906 357.269531 124.667969 356.332031 121.851562 355.328125 C 119.039062 354.320312 116.25 353.246094 113.488281 352.101562 C 110.726562 350.957031 107.996094 349.746094 105.292969 348.46875 C 102.59375 347.191406 99.925781 345.847656 97.289062 344.4375 C 94.652344 343.027344 92.050781 341.554688 89.488281 340.019531 C 86.925781 338.484375 84.402344 336.882812 81.914062 335.222656 C 79.429688 333.5625 76.988281 331.84375 74.585938 330.0625 C 72.1875 328.28125 69.832031 326.445312 67.519531 324.546875 C 65.210938 322.652344 62.949219 320.699219 60.734375 318.691406 C 58.519531 316.6875 56.355469 314.625 54.242188 312.511719 C 52.128906 310.398438 50.066406 308.234375 48.0625 306.019531 C 46.054688 303.804688 44.101562 301.542969 42.207031 299.234375 C 40.308594 296.921875 38.472656 294.566406 36.691406 292.167969 C 34.910156 289.765625 33.191406 287.324219 31.53125 284.839844 C 29.871094 282.351562 28.269531 279.828125 26.734375 277.265625 C 25.199219 274.703125 23.726562 272.101562 22.316406 269.464844 C 20.90625 266.828125 19.5625 264.160156 18.285156 261.460938 C 17.007812 258.757812 15.796875 256.027344 14.652344 253.265625 C 13.507812 250.503906 12.433594 247.714844 11.425781 244.902344 C 10.421875 242.085938 9.484375 239.25 8.617188 236.390625 C 7.75 233.53125 6.953125 230.652344 6.226562 227.75 C 5.5 224.851562 4.84375 221.9375 4.261719 219.003906 C 3.679688 216.074219 3.167969 213.128906 2.730469 210.171875 C 2.289062 207.21875 1.925781 204.25 1.632812 201.277344 C 1.339844 198.304688 1.117188 195.324219 0.972656 192.339844 C 0.824219 189.351562 0.753906 186.367188 0.753906 183.378906 C 0.753906 180.386719 0.824219 177.402344 0.972656 174.414062 C 1.117188 171.429688 1.339844 168.449219 1.632812 165.476562 C 1.925781 162.503906 2.289062 159.535156 2.730469 156.582031 C 3.167969 153.625 3.679688 150.679688 4.261719 147.75 C 4.84375 144.816406 5.5 141.902344 6.226562 139.003906 C 6.953125 136.101562 7.75 133.222656 8.617188 130.363281 C 9.484375 127.503906 10.421875 124.667969 11.425781 121.851562 C 12.433594 119.039062 13.507812 116.25 14.652344 113.488281 C 15.796875 110.726562 17.007812 107.996094 18.285156 105.292969 C 19.5625 102.59375 20.90625 99.925781 22.316406 97.289062 C 23.726562 94.652344 25.199219 92.050781 26.734375 89.488281 C 28.269531 86.925781 29.871094 84.402344 31.53125 81.914062 C 33.191406 79.429688 34.910156 76.988281 36.691406 74.585938 C 38.472656 72.1875 40.308594 69.832031 42.207031 67.519531 C 44.101562 65.210938 46.054688 62.949219 48.0625 60.734375 C 50.066406 58.519531 52.128906 56.355469 54.242188 54.242188 C 56.355469 52.128906 58.519531 50.066406 60.734375 48.0625 C 62.949219 46.054688 65.210938 44.101562 67.519531 42.207031 C 69.832031 40.308594 72.1875 38.472656 74.585938 36.691406 C 76.988281 34.910156 79.429688 33.191406 81.914062 31.53125 C 84.402344 29.871094 86.925781 28.269531 89.488281 26.734375 C 92.050781 25.199219 94.652344 23.726562 97.289062 22.316406 C 99.925781 20.90625 102.59375 19.5625 105.292969 18.285156 C 107.996094 17.007812 110.726562 15.796875 113.488281 14.652344 C 116.25 13.507812 119.039062 12.433594 121.851562 11.425781 C 124.667969 10.421875 127.503906 9.484375 130.363281 8.617188 C 133.222656 7.75 136.101562 6.953125 139.003906 6.226562 C 141.902344 5.5 144.816406 4.84375 147.75 4.261719 C 150.679688 3.679688 153.625 3.167969 156.582031 2.730469 C 159.535156 2.289062 162.503906 1.925781 165.476562 1.632812 C 168.449219 1.339844 171.429688 1.117188 174.417969 0.972656 C 177.402344 0.824219 180.386719 0.753906 183.378906 0.753906 C 186.367188 0.753906 189.351562 0.824219 192.339844 0.972656 C 195.324219 1.117188 198.304688 1.339844 201.277344 1.632812 C 204.25 1.925781 207.21875 2.289062 210.171875 2.730469 C 213.128906 3.167969 216.074219 3.679688 219.003906 4.261719 C 221.9375 4.84375 224.851562 5.5 227.75 6.226562 C 230.652344 6.953125 233.53125 7.75 236.390625 8.617188 C 239.25 9.484375 242.085938 10.421875 244.902344 11.425781 C 247.714844 12.433594 250.503906 13.507812 253.265625 14.652344 C 256.027344 15.796875 258.757812 17.007812 261.460938 18.285156 C 264.160156 19.5625 266.828125 20.90625 269.464844 22.316406 C 272.101562 23.726562 274.703125 25.199219 277.265625 26.734375 C 279.828125 28.269531 282.351562 29.871094 284.839844 31.53125 C 287.324219 33.191406 289.765625 34.910156 292.167969 36.691406 C 294.566406 38.472656 296.921875 40.308594 299.234375 42.207031 C 301.542969 44.101562 303.804688 46.054688 306.019531 48.0625 C 308.234375 50.066406 310.398438 52.128906 312.511719 54.242188 C 314.625 56.355469 316.6875 58.519531 318.691406 60.734375 C 320.699219 62.949219 322.652344 65.210938 324.546875 67.519531 C 326.445312 69.832031 328.28125 72.1875 330.0625 74.585938 C 331.84375 76.988281 333.5625 79.429688 335.222656 81.914062 C 336.882812 84.402344 338.484375 86.925781 340.019531 89.488281 C 341.554688 92.050781 343.027344 94.652344 344.4375 97.289062 C 345.847656 99.925781 347.191406 102.59375 348.46875 105.292969 C 349.746094 107.996094 350.957031 110.726562 352.101562 113.488281 C 353.246094 116.25 354.320312 119.039062 355.328125 121.851562 C 356.332031 124.667969 357.269531 127.503906 358.136719 130.363281 C 359.003906 133.222656 359.800781 136.101562 360.527344 139.003906 C 361.253906 141.902344 361.910156 144.816406 362.492188 147.75 C 363.074219 150.679688 363.585938 153.625 364.023438 156.582031 C 364.464844 159.535156 364.828125 162.503906 365.121094 165.476562 C 365.414062 168.449219 365.636719 171.429688 365.78125 174.414062 C 365.929688 177.402344 366 180.386719 366.003906 183.378906 Z M 366.003906 183.378906 " fill-opacity="1" fill-rule="nonzero"/></g></g></g></g><g clip-path="url(#clip-2)"><path fill="rgb(0%, 0%, 0%)" d="M 162.976562 281.429688 L 162.976562 208.109375 L 211.875 208.109375 L 211.875 281.429688 L 273 281.429688 L 273 183.667969 L 309.675781 183.667969 L 187.425781 73.683594 L 65.175781 183.667969 L 101.851562 183.667969 L 101.851562 281.429688 Z M 162.976562 281.429688 " fill-opacity="1" fill-rule="nonzero"/></g></svg>
