<svg xmlns="http://www.w3.org/2000/svg" xmlns:xlink="http://www.w3.org/1999/xlink" width="40" zoomAndPan="magnify" viewBox="0 0 375 374.999991" height="40" preserveAspectRatio="xMidYMid meet" version="1.0"><defs><filter xmlns:xlink="http://www.w3.org/1999/xlink" x="0%" y="0%" width="100%" xlink:type="simple" xlink:actuate="onLoad" height="100%" id="filter-remove-color" xlink:show="other"><feColorMatrix values="0 0 0 0 1 0 0 0 0 1 0 0 0 0 1 0 0 0 1 0" color-interpolation-filters="sRGB"/></filter><mask id="mask-0"><g filter="url(#filter-remove-color)"><rect x="-37.5" width="450" fill="rgb(0%, 0%, 0%)" y="-37.499999" height="449.999989" fill-opacity="0.8"/></g></mask><clipPath id="clip-0"><path d="M 0.753906 0.753906 L 366.003906 0.753906 L 366.003906 366.003906 L 0.753906 366.003906 Z M 0.753906 0.753906 " clip-rule="nonzero"/></clipPath><clipPath id="clip-1"><rect x="0" width="367" y="0" height="367"/></clipPath><clipPath id="clip-2"><path d="M 58 96 L 323 96 L 323 279.8125 L 58 279.8125 Z M 58 96 " clip-rule="nonzero"/></clipPath><clipPath id="clip-3"><path d="M 51.566406 95.3125 L 316 95.3125 L 316 279.8125 L 51.566406 279.8125 Z M 51.566406 95.3125 " clip-rule="nonzero"/></clipPath><clipPath id="clip-4"><path d="M 55 95.3125 L 253 95.3125 L 253 279.8125 L 55 279.8125 Z M 55 95.3125 " clip-rule="nonzero"/></clipPath><clipPath id="clip-5"><path d="M 114 95.3125 L 310 95.3125 L 310 279.8125 L 114 279.8125 Z M 114 95.3125 " clip-rule="nonzero"/></clipPath><clipPath id="clip-6"><path d="M 79 101 L 287 101 L 287 279.8125 L 79 279.8125 Z M 79 101 " clip-rule="nonzero"/></clipPath></defs><g mask="url(#mask-0)"><g transform="matrix(1, 0, 0, 1, 4, 4)"><g id="source-5" clip-path="url(#clip-1)"><g clip-path="url(#clip-0)"><path fill="rgb(99.21875%, 79.60968%, 34.509277%)" d="M 366.003906 183.378906 C 366 186.367188 365.929688 189.351562 365.78125 192.339844 C 365.636719 195.324219 365.414062 198.304688 365.121094 201.277344 C 364.828125 204.25 364.464844 207.21875 364.023438 210.171875 C 363.585938 213.128906 363.074219 216.074219 362.492188 219.003906 C 361.910156 221.9375 361.253906 224.851562 360.527344 227.75 C 359.800781 230.652344 359.003906 233.53125 358.136719 236.390625 C 357.269531 239.25 356.332031 242.085938 355.328125 244.902344 C 354.320312 247.714844 353.246094 250.503906 352.101562 253.265625 C 350.957031 256.027344 349.746094 258.757812 348.46875 261.460938 C 347.191406 264.160156 345.847656 266.828125 344.4375 269.464844 C 343.027344 272.101562 341.554688 274.703125 340.019531 277.265625 C 338.484375 279.828125 336.882812 282.351562 335.222656 284.839844 C 333.5625 287.324219 331.84375 289.765625 330.0625 292.167969 C 328.28125 294.566406 326.445312 296.921875 324.546875 299.234375 C 322.652344 301.542969 320.699219 303.804688 318.691406 306.019531 C 316.6875 308.234375 314.625 310.398438 312.511719 312.511719 C 310.398438 314.625 308.234375 316.6875 306.019531 318.691406 C 303.804688 320.699219 301.542969 322.652344 299.234375 324.546875 C 296.921875 326.445312 294.566406 328.28125 292.167969 330.0625 C 289.765625 331.84375 287.324219 333.5625 284.839844 335.222656 C 282.351562 336.882812 279.828125 338.484375 277.265625 340.019531 C 274.703125 341.554688 272.101562 343.027344 269.464844 344.4375 C 266.828125 345.847656 264.160156 347.191406 261.460938 348.46875 C 258.757812 349.746094 256.027344 350.957031 253.265625 352.101562 C 250.503906 353.246094 247.714844 354.320312 244.902344 355.328125 C 242.085938 356.332031 239.25 357.269531 236.390625 358.136719 C 233.53125 359.003906 230.652344 359.800781 227.75 360.527344 C 224.851562 361.253906 221.9375 361.910156 219.003906 362.492188 C 216.074219 363.074219 213.128906 363.585938 210.171875 364.023438 C 207.21875 364.464844 204.25 364.828125 201.277344 365.121094 C 198.304688 365.414062 195.324219 365.636719 192.339844 365.78125 C 189.351562 365.929688 186.367188 366 183.378906 366.003906 C 180.386719 366 177.402344 365.929688 174.417969 365.78125 C 171.429688 365.636719 168.449219 365.414062 165.476562 365.121094 C 162.503906 364.828125 159.535156 364.464844 156.582031 364.023438 C 153.625 363.585938 150.679688 363.074219 147.75 362.492188 C 144.816406 361.910156 141.902344 361.253906 139.003906 360.527344 C 136.101562 359.800781 133.222656 359.003906 130.363281 358.136719 C 127.503906 357.269531 124.667969 356.332031 121.851562 355.328125 C 119.039062 354.320312 116.25 353.246094 113.488281 352.101562 C 110.726562 350.957031 107.996094 349.746094 105.292969 348.46875 C 102.59375 347.191406 99.925781 345.847656 97.289062 344.4375 C 94.652344 343.027344 92.050781 341.554688 89.488281 340.019531 C 86.925781 338.484375 84.402344 336.882812 81.914062 335.222656 C 79.429688 333.5625 76.988281 331.84375 74.585938 330.0625 C 72.1875 328.28125 69.832031 326.445312 67.519531 324.546875 C 65.210938 322.652344 62.949219 320.699219 60.734375 318.691406 C 58.519531 316.6875 56.355469 314.625 54.242188 312.511719 C 52.128906 310.398438 50.066406 308.234375 48.0625 306.019531 C 46.054688 303.804688 44.101562 301.542969 42.207031 299.234375 C 40.308594 296.921875 38.472656 294.566406 36.691406 292.167969 C 34.910156 289.765625 33.191406 287.324219 31.53125 284.839844 C 29.871094 282.351562 28.269531 279.828125 26.734375 277.265625 C 25.199219 274.703125 23.726562 272.101562 22.316406 269.464844 C 20.90625 266.828125 19.5625 264.160156 18.285156 261.460938 C 17.007812 258.757812 15.796875 256.027344 14.652344 253.265625 C 13.507812 250.503906 12.433594 247.714844 11.425781 244.902344 C 10.421875 242.085938 9.484375 239.25 8.617188 236.390625 C 7.75 233.53125 6.953125 230.652344 6.226562 227.75 C 5.5 224.851562 4.84375 221.9375 4.261719 219.003906 C 3.679688 216.074219 3.167969 213.128906 2.730469 210.171875 C 2.289062 207.21875 1.925781 204.25 1.632812 201.277344 C 1.339844 198.304688 1.117188 195.324219 0.972656 192.339844 C 0.824219 189.351562 0.753906 186.367188 0.753906 183.378906 C 0.753906 180.386719 0.824219 177.402344 0.972656 174.414062 C 1.117188 171.429688 1.339844 168.449219 1.632812 165.476562 C 1.925781 162.503906 2.289062 159.535156 2.730469 156.582031 C 3.167969 153.625 3.679688 150.679688 4.261719 147.75 C 4.84375 144.816406 5.5 141.902344 6.226562 139.003906 C 6.953125 136.101562 7.75 133.222656 8.617188 130.363281 C 9.484375 127.503906 10.421875 124.667969 11.425781 121.851562 C 12.433594 119.039062 13.507812 116.25 14.652344 113.488281 C 15.796875 110.726562 17.007812 107.996094 18.285156 105.292969 C 19.5625 102.59375 20.90625 99.925781 22.316406 97.289062 C 23.726562 94.652344 25.199219 92.050781 26.734375 89.488281 C 28.269531 86.925781 29.871094 84.402344 31.53125 81.914062 C 33.191406 79.429688 34.910156 76.988281 36.691406 74.585938 C 38.472656 72.1875 40.308594 69.832031 42.207031 67.519531 C 44.101562 65.210938 46.054688 62.949219 48.0625 60.734375 C 50.066406 58.519531 52.128906 56.355469 54.242188 54.242188 C 56.355469 52.128906 58.519531 50.066406 60.734375 48.0625 C 62.949219 46.054688 65.210938 44.101562 67.519531 42.207031 C 69.832031 40.308594 72.1875 38.472656 74.585938 36.691406 C 76.988281 34.910156 79.429688 33.191406 81.914062 31.53125 C 84.402344 29.871094 86.925781 28.269531 89.488281 26.734375 C 92.050781 25.199219 94.652344 23.726562 97.289062 22.316406 C 99.925781 20.90625 102.59375 19.5625 105.292969 18.285156 C 107.996094 17.007812 110.726562 15.796875 113.488281 14.652344 C 116.25 13.507812 119.039062 12.433594 121.851562 11.425781 C 124.667969 10.421875 127.503906 9.484375 130.363281 8.617188 C 133.222656 7.75 136.101562 6.953125 139.003906 6.226562 C 141.902344 5.5 144.816406 4.84375 147.75 4.261719 C 150.679688 3.679688 153.625 3.167969 156.582031 2.730469 C 159.535156 2.289062 162.503906 1.925781 165.476562 1.632812 C 168.449219 1.339844 171.429688 1.117188 174.417969 0.972656 C 177.402344 0.824219 180.386719 0.753906 183.378906 0.753906 C 186.367188 0.753906 189.351562 0.824219 192.339844 0.972656 C 195.324219 1.117188 198.304688 1.339844 201.277344 1.632812 C 204.25 1.925781 207.21875 2.289062 210.171875 2.730469 C 213.128906 3.167969 216.074219 3.679688 219.003906 4.261719 C 221.9375 4.84375 224.851562 5.5 227.75 6.226562 C 230.652344 6.953125 233.53125 7.75 236.390625 8.617188 C 239.25 9.484375 242.085938 10.421875 244.902344 11.425781 C 247.714844 12.433594 250.503906 13.507812 253.265625 14.652344 C 256.027344 15.796875 258.757812 17.007812 261.460938 18.285156 C 264.160156 19.5625 266.828125 20.90625 269.464844 22.316406 C 272.101562 23.726562 274.703125 25.199219 277.265625 26.734375 C 279.828125 28.269531 282.351562 29.871094 284.839844 31.53125 C 287.324219 33.191406 289.765625 34.910156 292.167969 36.691406 C 294.566406 38.472656 296.921875 40.308594 299.234375 42.207031 C 301.542969 44.101562 303.804688 46.054688 306.019531 48.0625 C 308.234375 50.066406 310.398438 52.128906 312.511719 54.242188 C 314.625 56.355469 316.6875 58.519531 318.691406 60.734375 C 320.699219 62.949219 322.652344 65.210938 324.546875 67.519531 C 326.445312 69.832031 328.28125 72.1875 330.0625 74.585938 C 331.84375 76.988281 333.5625 79.429688 335.222656 81.914062 C 336.882812 84.402344 338.484375 86.925781 340.019531 89.488281 C 341.554688 92.050781 343.027344 94.652344 344.4375 97.289062 C 345.847656 99.925781 347.191406 102.59375 348.46875 105.292969 C 349.746094 107.996094 350.957031 110.726562 352.101562 113.488281 C 353.246094 116.25 354.320312 119.039062 355.328125 121.851562 C 356.332031 124.667969 357.269531 127.503906 358.136719 130.363281 C 359.003906 133.222656 359.800781 136.101562 360.527344 139.003906 C 361.253906 141.902344 361.910156 144.816406 362.492188 147.75 C 363.074219 150.679688 363.585938 153.625 364.023438 156.582031 C 364.464844 159.535156 364.828125 162.503906 365.121094 165.476562 C 365.414062 168.449219 365.636719 171.429688 365.78125 174.414062 C 365.929688 177.402344 366 180.386719 366.003906 183.378906 Z M 366.003906 183.378906 " fill-opacity="1" fill-rule="nonzero"/></g></g></g></g><g clip-path="url(#clip-2)"><path fill="rgb(97.24884%, 63.529968%, 11.759949%)" d="M 309.875 96.238281 L 256.398438 102.105469 C 251.597656 102.105469 247.6875 106.019531 247.6875 110.832031 C 247.6875 128.792969 243.746094 136.433594 240.421875 139.667969 C 233.207031 146.71875 214.433594 146.71875 208.277344 146.71875 C 204.597656 146.71875 201.046875 146.636719 197.570312 146.539062 C 194.273438 146.457031 191.152344 146.371094 188.105469 146.371094 L 187.175781 146.371094 C 161.269531 146.515625 138.695312 151.160156 120.113281 160.191406 C 102.105469 168.933594 87.714844 181.683594 77.34375 198.113281 C 60.375 224.945312 58.199219 254.726562 58.199219 277.667969 C 58.199219 278.339844 58.273438 278.988281 58.414062 279.609375 L 128.308594 279.609375 C 128.308594 279.609375 130.449219 279.703125 131.824219 278.554688 C 132.910156 277.644531 133.054688 275.046875 133.054688 274.375 C 133.054688 261.5625 133.652344 246.945312 140.332031 236.382812 C 142.9375 232.261719 151.109375 221.570312 187.582031 221.378906 L 188.035156 221.378906 C 190.136719 221.378906 192.804688 221.4375 195.671875 221.523438 C 199.460938 221.617188 203.75 221.726562 208.339844 221.726562 C 232.070312 221.726562 266.640625 218.792969 292.65625 193.382812 C 312.492188 174.03125 320.582031 146.191406 322.542969 110.832031 C 323.128906 100.332031 314.679688 96.238281 309.875 96.238281 " fill-opacity="1" fill-rule="nonzero"/></g><g clip-path="url(#clip-3)"><path fill="rgb(13.328552%, 13.328552%, 13.328552%)" d="M 307.222656 95.480469 L 249.804688 95.480469 C 244.988281 95.480469 241.09375 99.386719 241.09375 104.210938 C 241.09375 122.171875 237.125 129.8125 233.816406 133.046875 C 226.585938 140.097656 207.824219 140.097656 201.65625 140.097656 C 197.988281 140.097656 194.441406 140.015625 190.964844 139.917969 C 187.664062 139.835938 184.546875 139.75 181.5 139.75 L 180.578125 139.75 C 154.660156 139.894531 132.097656 144.539062 113.503906 153.570312 C 95.496094 162.308594 81.109375 175.0625 70.734375 191.480469 C 53.765625 218.324219 51.585938 248.105469 51.585938 271.046875 C 51.585938 275.875 55.488281 279.777344 60.292969 279.777344 L 117.722656 279.777344 C 122.539062 279.777344 126.433594 275.875 126.433594 271.046875 C 126.433594 258.234375 127.292969 242.179688 133.960938 231.617188 C 136.566406 227.484375 144.503906 214.949219 180.972656 214.757812 L 181.425781 214.757812 C 183.53125 214.757812 186.195312 214.816406 189.0625 214.902344 C 192.851562 214.996094 197.140625 215.105469 201.730469 215.105469 C 225.472656 215.105469 260.03125 212.171875 286.046875 186.773438 C 305.882812 167.398438 315.933594 139.632812 315.933594 104.210938 C 315.933594 99.386719 312.039062 95.480469 307.222656 95.480469 " fill-opacity="1" fill-rule="nonzero"/></g><g clip-path="url(#clip-4)"><path fill="rgb(100%, 100%, 100%)" d="M 58.84375 279.777344 C 58.84375 279.777344 57.246094 279.5 56.753906 279.273438 C 56.359375 279.082031 55.367188 278.242188 55.367188 278.242188 C 55.367188 253.863281 57.386719 223.964844 75.265625 195.683594 C 86.246094 178.308594 98.542969 167.421875 117.710938 158.105469 C 140.105469 147.234375 170.589844 144.816406 192.207031 144.695312 L 193.1875 144.695312 C 196.363281 144.695312 199.601562 144.78125 203.03125 144.863281 L 203.152344 144.875 C 206.570312 144.960938 210.441406 145.066406 214.3125 145.066406 C 220.863281 145.066406 230.300781 143.808594 238.164062 137.859375 C 247.75 130.578125 248.550781 113.660156 248.550781 95.480469 L 252.039062 95.480469 C 252.039062 114.582031 251.140625 132.398438 240.269531 140.648438 C 231.640625 147.199219 221.398438 148.5625 214.3125 148.5625 C 210.394531 148.5625 206.496094 148.46875 203.054688 148.371094 L 202.9375 148.371094 C 199.53125 148.289062 196.316406 148.203125 193.1875 148.203125 L 192.230469 148.203125 C 170.972656 148.3125 141.035156 150.671875 119.226562 161.269531 C 100.707031 170.273438 88.828125 180.773438 78.214844 197.550781 C 60.828125 225.066406 58.84375 255.828125 58.84375 279.777344 " fill-opacity="1" fill-rule="nonzero"/></g><g clip-path="url(#clip-5)"><path fill="rgb(100%, 100%, 100%)" d="M 118.03125 279.777344 L 114.53125 279.777344 C 114.53125 263.085938 116.109375 240.824219 123.601562 229.628906 L 123.863281 229.246094 C 136.769531 209.644531 161.078125 205.238281 179.203125 204.996094 L 179.644531 204.996094 C 181.570312 204.996094 184.019531 205.058594 186.613281 205.117188 C 190.078125 205.214844 193.9375 205.320312 198.0625 205.320312 C 234.710938 205.308594 260.90625 197.144531 278.125 180.34375 C 295.894531 162.980469 306.792969 130.410156 306.519531 95.480469 C 306.519531 95.480469 307.710938 95.445312 308.082031 95.480469 C 308.574219 95.53125 309.863281 95.867188 309.863281 95.867188 C 310.152344 131.714844 299 164.847656 280.5625 182.847656 C 262.660156 200.316406 235.679688 208.816406 198.0625 208.816406 C 193.890625 208.816406 190.007812 208.710938 186.578125 208.625 C 183.949219 208.566406 181.523438 208.496094 179.644531 208.496094 L 179.238281 208.496094 C 161.972656 208.734375 138.835938 212.863281 126.78125 231.183594 L 126.503906 231.582031 C 121.042969 239.746094 118.03125 256.871094 118.03125 279.777344 " fill-opacity="1" fill-rule="nonzero"/></g><g clip-path="url(#clip-6)"><path fill="rgb(100%, 100%, 100%)" d="M 265.445312 162.585938 L 258.777344 155.710938 C 270.5625 144.253906 276.523438 126.375 276.523438 102.59375 L 276.523438 101.804688 L 286.082031 101.746094 L 286.082031 102.59375 C 286.082031 129.070312 279.140625 149.246094 265.445312 162.585938 Z M 143.28125 184.726562 L 140.535156 175.554688 C 149.210938 172.953125 158.878906 171.410156 169.238281 170.957031 L 203.28125 169.136719 L 203.796875 178.691406 L 169.691406 180.535156 C 160.074219 180.941406 151.195312 182.355469 143.28125 184.726562 Z M 80.425781 279.742188 C 80.402344 279.5625 79.878906 275.335938 79.878906 268.378906 C 79.878906 254.964844 81.847656 235.078125 91.195312 216.480469 L 99.726562 220.792969 C 91.230469 237.710938 89.4375 256.007812 89.4375 268.378906 C 89.4375 274.675781 89.890625 279.703125 89.902344 279.742188 L 80.425781 279.742188 " fill-opacity="1" fill-rule="nonzero"/></g></svg>
