<svg xmlns="http://www.w3.org/2000/svg" xmlns:xlink="http://www.w3.org/1999/xlink" width="40" zoomAndPan="magnify" viewBox="0 0 375 374.999991" height="40" preserveAspectRatio="xMidYMid meet" version="1.0"><defs><filter xmlns:xlink="http://www.w3.org/1999/xlink" x="0%" y="0%" width="100%" xlink:type="simple" xlink:actuate="onLoad" height="100%" id="filter-remove-color" xlink:show="other"><feColorMatrix values="0 0 0 0 1 0 0 0 0 1 0 0 0 0 1 0 0 0 1 0" color-interpolation-filters="sRGB"/></filter><mask id="mask-0"><g filter="url(#filter-remove-color)"><rect x="-37.5" width="450" fill="rgb(0%, 0%, 0%)" y="-37.499999" height="449.999989" fill-opacity="0.8"/></g></mask><clipPath id="clip-0"><path d="M 0.398438 0 L 365.648438 0 L 365.648438 365.25 L 0.398438 365.25 Z M 0.398438 0 " clip-rule="nonzero"/></clipPath><clipPath id="clip-1"><rect x="0" width="367" y="0" height="366"/></clipPath><clipPath id="clip-2"><path d="M 60.035156 52.292969 L 322.535156 52.292969 L 322.535156 314.792969 L 60.035156 314.792969 Z M 60.035156 52.292969 " clip-rule="nonzero"/></clipPath></defs><g mask="url(#mask-0)"><g transform="matrix(1, 0, 0, 1, 5, 0)"><g id="source-5" clip-path="url(#clip-1)"><g clip-path="url(#clip-0)"><path fill="rgb(99.21875%, 79.60968%, 34.509277%)" d="M 365.648438 182.625 C 365.648438 185.613281 365.574219 188.601562 365.425781 191.585938 C 365.28125 194.570312 365.0625 197.550781 364.769531 200.523438 C 364.476562 203.5 364.109375 206.464844 363.671875 209.421875 C 363.230469 212.378906 362.722656 215.320312 362.136719 218.253906 C 361.554688 221.183594 360.898438 224.101562 360.175781 227 C 359.449219 229.898438 358.652344 232.777344 357.785156 235.636719 C 356.914062 238.5 355.976562 241.335938 354.972656 244.148438 C 353.964844 246.964844 352.890625 249.75 351.746094 252.511719 C 350.601562 255.273438 349.390625 258.003906 348.113281 260.707031 C 346.835938 263.410156 345.492188 266.078125 344.082031 268.714844 C 342.675781 271.351562 341.203125 273.949219 339.664062 276.511719 C 338.128906 279.078125 336.53125 281.601562 334.871094 284.085938 C 333.207031 286.570312 331.488281 289.015625 329.707031 291.414062 C 327.925781 293.816406 326.089844 296.171875 324.191406 298.480469 C 322.296875 300.792969 320.34375 303.054688 318.339844 305.269531 C 316.332031 307.484375 314.269531 309.648438 312.15625 311.761719 C 310.042969 313.875 307.878906 315.933594 305.664062 317.941406 C 303.449219 319.949219 301.1875 321.898438 298.878906 323.796875 C 296.566406 325.691406 294.210938 327.53125 291.8125 329.3125 C 289.410156 331.089844 286.96875 332.8125 284.484375 334.472656 C 281.996094 336.132812 279.472656 337.730469 276.910156 339.265625 C 274.347656 340.804688 271.746094 342.277344 269.109375 343.6875 C 266.476562 345.09375 263.804688 346.4375 261.105469 347.714844 C 258.402344 348.992188 255.671875 350.203125 252.910156 351.347656 C 250.148438 352.492188 247.359375 353.566406 244.546875 354.574219 C 241.734375 355.582031 238.894531 356.519531 236.035156 357.386719 C 233.175781 358.253906 230.296875 359.050781 227.394531 359.777344 C 224.496094 360.503906 221.582031 361.15625 218.652344 361.742188 C 215.71875 362.324219 212.773438 362.835938 209.820312 363.273438 C 206.863281 363.710938 203.898438 364.078125 200.921875 364.371094 C 197.949219 364.664062 194.96875 364.882812 191.984375 365.03125 C 188.996094 365.175781 186.011719 365.25 183.023438 365.25 C 180.035156 365.25 177.046875 365.175781 174.0625 365.03125 C 171.074219 364.882812 168.097656 364.664062 165.121094 364.371094 C 162.148438 364.078125 159.183594 363.710938 156.226562 363.273438 C 153.269531 362.835938 150.324219 362.324219 147.394531 361.742188 C 144.460938 361.15625 141.546875 360.503906 138.648438 359.777344 C 135.75 359.050781 132.867188 358.253906 130.007812 357.386719 C 127.148438 356.519531 124.3125 355.582031 121.496094 354.574219 C 118.683594 353.566406 115.894531 352.492188 113.132812 351.347656 C 110.375 350.203125 107.640625 348.992188 104.941406 347.714844 C 102.238281 346.4375 99.570312 345.09375 96.933594 343.6875 C 94.296875 342.277344 91.699219 340.804688 89.132812 339.265625 C 86.570312 337.730469 84.046875 336.132812 81.5625 334.472656 C 79.074219 332.8125 76.632812 331.089844 74.234375 329.3125 C 71.832031 327.53125 69.476562 325.691406 67.164062 323.796875 C 64.855469 321.898438 62.59375 319.949219 60.378906 317.941406 C 58.164062 315.933594 56 313.875 53.886719 311.761719 C 51.773438 309.648438 49.714844 307.484375 47.707031 305.269531 C 45.699219 303.054688 43.746094 300.792969 41.851562 298.480469 C 39.953125 296.171875 38.117188 293.816406 36.335938 291.414062 C 34.554688 289.015625 32.835938 286.570312 31.175781 284.085938 C 29.515625 281.601562 27.914062 279.078125 26.378906 276.511719 C 24.84375 273.949219 23.371094 271.351562 21.960938 268.714844 C 20.550781 266.078125 19.207031 263.410156 17.929688 260.707031 C 16.652344 258.003906 15.441406 255.273438 14.296875 252.511719 C 13.15625 249.75 12.078125 246.964844 11.074219 244.148438 C 10.066406 241.335938 9.128906 238.5 8.261719 235.636719 C 7.394531 232.777344 6.597656 229.898438 5.871094 227 C 5.144531 224.101562 4.488281 221.183594 3.90625 218.253906 C 3.324219 215.320312 2.8125 212.378906 2.375 209.421875 C 1.933594 206.464844 1.570312 203.5 1.277344 200.523438 C 0.984375 197.550781 0.765625 194.570312 0.617188 191.585938 C 0.46875 188.601562 0.398438 185.613281 0.398438 182.625 C 0.398438 179.636719 0.46875 176.648438 0.617188 173.664062 C 0.765625 170.679688 0.984375 167.699219 1.277344 164.726562 C 1.570312 161.75 1.933594 158.785156 2.375 155.828125 C 2.8125 152.871094 3.324219 149.929688 3.90625 146.996094 C 4.488281 144.066406 5.144531 141.148438 5.871094 138.25 C 6.597656 135.351562 7.394531 132.472656 8.261719 129.613281 C 9.128906 126.75 10.066406 123.914062 11.074219 121.101562 C 12.078125 118.285156 13.15625 115.5 14.296875 112.738281 C 15.441406 109.976562 16.652344 107.246094 17.929688 104.542969 C 19.207031 101.839844 20.550781 99.171875 21.960938 96.535156 C 23.371094 93.898438 24.84375 91.300781 26.378906 88.738281 C 27.914062 86.171875 29.515625 83.648438 31.175781 81.164062 C 32.835938 78.679688 34.554688 76.234375 36.335938 73.835938 C 38.117188 71.433594 39.953125 69.078125 41.851562 66.769531 C 43.746094 64.457031 45.699219 62.195312 47.707031 59.980469 C 49.714844 57.765625 51.773438 55.601562 53.886719 53.488281 C 56 51.375 58.164062 49.316406 60.378906 47.308594 C 62.59375 45.300781 64.855469 43.351562 67.164062 41.453125 C 69.476562 39.558594 71.832031 37.71875 74.234375 35.9375 C 76.632812 34.160156 79.074219 32.4375 81.5625 30.777344 C 84.046875 29.117188 86.570312 27.519531 89.132812 25.980469 C 91.699219 24.445312 94.296875 22.972656 96.933594 21.5625 C 99.570312 20.15625 102.238281 18.8125 104.941406 17.535156 C 107.640625 16.257812 110.375 15.046875 113.132812 13.902344 C 115.894531 12.757812 118.683594 11.683594 121.496094 10.675781 C 124.3125 9.667969 127.148438 8.730469 130.007812 7.863281 C 132.867188 6.996094 135.75 6.199219 138.648438 5.472656 C 141.546875 4.746094 144.460938 4.09375 147.394531 3.507812 C 150.324219 2.925781 153.269531 2.414062 156.226562 1.976562 C 159.183594 1.539062 162.148438 1.171875 165.121094 0.878906 C 168.097656 0.585938 171.074219 0.367188 174.0625 0.21875 C 177.046875 0.0742188 180.035156 0 183.023438 0 C 186.011719 0 188.996094 0.0742188 191.984375 0.21875 C 194.96875 0.367188 197.949219 0.585938 200.921875 0.878906 C 203.898438 1.171875 206.863281 1.539062 209.820312 1.976562 C 212.773438 2.414062 215.71875 2.925781 218.652344 3.507812 C 221.582031 4.09375 224.496094 4.746094 227.394531 5.472656 C 230.296875 6.199219 233.175781 6.996094 236.035156 7.863281 C 238.894531 8.730469 241.734375 9.667969 244.546875 10.675781 C 247.359375 11.683594 250.148438 12.757812 252.910156 13.902344 C 255.671875 15.046875 258.402344 16.257812 261.105469 17.535156 C 263.804688 18.8125 266.476562 20.15625 269.109375 21.5625 C 271.746094 22.972656 274.347656 24.445312 276.910156 25.980469 C 279.472656 27.519531 281.996094 29.117188 284.484375 30.777344 C 286.96875 32.4375 289.410156 34.160156 291.8125 35.9375 C 294.210938 37.71875 296.566406 39.558594 298.878906 41.453125 C 301.1875 43.351562 303.449219 45.300781 305.664062 47.308594 C 307.878906 49.316406 310.042969 51.375 312.15625 53.488281 C 314.269531 55.601562 316.332031 57.765625 318.339844 59.980469 C 320.34375 62.195312 322.296875 64.457031 324.191406 66.769531 C 326.089844 69.078125 327.925781 71.433594 329.707031 73.835938 C 331.488281 76.234375 333.207031 78.679688 334.871094 81.164062 C 336.53125 83.648438 338.128906 86.171875 339.664062 88.738281 C 341.203125 91.300781 342.675781 93.898438 344.082031 96.535156 C 345.492188 99.171875 346.835938 101.839844 348.113281 104.542969 C 349.390625 107.246094 350.601562 109.976562 351.746094 112.738281 C 352.890625 115.5 353.964844 118.285156 354.972656 121.101562 C 355.976562 123.914062 356.914062 126.75 357.785156 129.613281 C 358.652344 132.472656 359.449219 135.351562 360.175781 138.25 C 360.898438 141.148438 361.554688 144.066406 362.136719 146.996094 C 362.722656 149.929688 363.230469 152.871094 363.671875 155.828125 C 364.109375 158.785156 364.476562 161.75 364.769531 164.726562 C 365.0625 167.699219 365.28125 170.679688 365.425781 173.664062 C 365.574219 176.648438 365.648438 179.636719 365.648438 182.625 Z M 365.648438 182.625 " fill-opacity="1" fill-rule="nonzero"/></g></g></g></g><g clip-path="url(#clip-2)"><path fill="rgb(0%, 0%, 0%)" d="M 191.285156 52.292969 C 118.800781 52.292969 60.035156 111.058594 60.035156 183.542969 C 60.035156 256.039062 118.800781 314.792969 191.285156 314.792969 C 263.777344 314.792969 322.535156 256.039062 322.535156 183.542969 C 322.535156 111.058594 263.777344 52.292969 191.285156 52.292969 Z M 191.285156 292.921875 C 130.875 292.921875 81.910156 243.957031 81.910156 183.542969 C 81.910156 123.136719 130.875 74.167969 191.285156 74.167969 C 251.695312 74.167969 300.660156 123.136719 300.660156 183.542969 C 300.660156 243.957031 251.695312 292.921875 191.285156 292.921875 Z M 191.285156 292.921875 " fill-opacity="1" fill-rule="nonzero"/></g><path fill="rgb(0%, 0%, 0%)" d="M 202.222656 117.917969 L 158.472656 117.917969 L 158.472656 249.167969 L 180.347656 249.167969 L 180.347656 205.417969 L 202.222656 205.417969 C 226.378906 205.417969 245.972656 185.832031 245.972656 161.667969 C 245.972656 137.507812 226.378906 117.917969 202.222656 117.917969 Z M 202.222656 183.542969 L 180.347656 183.542969 L 180.347656 139.792969 L 202.222656 139.792969 C 214.300781 139.792969 224.097656 149.589844 224.097656 161.671875 C 224.097656 173.753906 214.300781 183.542969 202.222656 183.542969 Z M 202.222656 183.542969 " fill-opacity="1" fill-rule="nonzero"/></svg>
